<svg xmlns="http://www.w3.org/2000/svg" viewBox="0 0 674.4 149.67"><defs><style>.cls-1{fill:#00a959;}.cls-2{fill:#fff;}.cls-3{fill:#ee3338;}.cls-4{fill:#373637;}</style></defs><title>Asset 8</title><g id="Layer_2" data-name="Layer 2"><g id="Layer_1-2" data-name="Layer 1"><path class="cls-1" d="M180.18,90.48l-.58-.31a1,1,0,0,1-.58-.86c0-.9.69-1.53,2.08-1.88a9.12,9.12,0,0,0,4.38-2,5.72,5.72,0,0,0,1.31-4.18V44.81a49.42,49.42,0,0,0-.31-6.93q-.31-1.71-1.08-2a11.65,11.65,0,0,0-4.15-.54h-2.38a8.15,8.15,0,0,0-4.3,1.26,9.11,9.11,0,0,0-3.23,3.24,16.57,16.57,0,0,1-1.81,2.74c-.74.93-1.42,1.4-2,1.4s-.93-.48-.93-1.44A6.66,6.66,0,0,1,167,40.4,45.39,45.39,0,0,0,169,35a35.79,35.79,0,0,0,.92-5.35c.2-1.44.77-2.16,1.69-2.16.25,0,.64.41,1.15,1.21s.9,1.4,1.15,1.76a4.57,4.57,0,0,0,2.31,1.17,12.33,12.33,0,0,0,3.15.45L207.69,32a12.28,12.28,0,0,0,5.92-1.26,12.54,12.54,0,0,0,1.46-1.26,11,11,0,0,1,1-.95,1.67,1.67,0,0,1,1-.31c.51,0,.76.57.76,1.71A18.24,18.24,0,0,1,217.6,32l-.53,2.51A24.94,24.94,0,0,0,216.3,40v1.53a5.93,5.93,0,0,1-.35,2.2c-.23.57-.55.85-1,.85a1.29,1.29,0,0,1-1.08-.8,9.91,9.91,0,0,1-.84-2.7,7.6,7.6,0,0,0-2.34-4.32,7.88,7.88,0,0,0-5-1.35h-5.22a3.4,3.4,0,0,0-2.35.68,4.71,4.71,0,0,0-1,2.7,49.57,49.57,0,0,0-.3,6.51V81.13a5.76,5.76,0,0,0,1.3,4.14,9.4,9.4,0,0,0,4.38,2.16,4.21,4.21,0,0,1,1.58.67,1.37,1.37,0,0,1,.5,1.12,1,1,0,0,1-.54.86,2.54,2.54,0,0,1-1.31.31c-1.23,0-3.12-.06-5.68-.18-2.36-.12-4.08-.18-5.15-.18s-2.77.06-5.23.18c-1.84.18-3.74.27-5.69.27Z"/><path class="cls-1" d="M220.14,90.12a1.06,1.06,0,0,1-.54-.9,1.4,1.4,0,0,1,.46-1.12,3.76,3.76,0,0,1,1.46-.67,6.85,6.85,0,0,0,3.65-1.94,6.89,6.89,0,0,0,1-4.18V40.58a8.26,8.26,0,0,0-.8-4.27c-.54-.81-1.73-1.46-3.58-1.94-1.28-.23-1.92-.83-1.92-1.79a1.06,1.06,0,0,1,.5-.95,2.34,2.34,0,0,1,1.27-.31c1.38,0,3.15.06,5.3.18s3.51.18,4.38.18,2.46-.06,4.61-.18q3.54-.18,5.61-.18,1.62,0,1.62,1.35a1.31,1.31,0,0,1-.42,1.07,3.82,3.82,0,0,1-1.5.63,8.11,8.11,0,0,0-4,2.21,6.55,6.55,0,0,0-1,4.09V57.39c0,.72.39,1.08,1.16,1.08h23q.84,0,.84-1.26V40.58a6.55,6.55,0,0,0-1-4,7.21,7.21,0,0,0-3.95-2.21,4.13,4.13,0,0,1-1.54-.63,1.25,1.25,0,0,1-.46-1.07c0-.9.56-1.35,1.69-1.35,1.33,0,3.23.06,5.69.18,2.25.12,3.89.18,4.91.18.82,0,2.16-.06,4-.18,2.05-.12,3.79-.18,5.23-.18a2.31,2.31,0,0,1,1.26.31,1,1,0,0,1,.5.95c0,.9-.64,1.49-1.92,1.79a5.85,5.85,0,0,0-3.53,2,7.85,7.85,0,0,0-.85,4.18V81.31a7.6,7.6,0,0,0,.89,4.23,5.84,5.84,0,0,0,3.57,1.89,3.76,3.76,0,0,1,1.46.67,1.4,1.4,0,0,1,.46,1.12,1.06,1.06,0,0,1-.54.9,2.17,2.17,0,0,1-1.23.36,48.78,48.78,0,0,1-5.15-.27Q267.48,90,266,90c-.92,0-2.51.06-4.76.18s-4.21.18-5.54.18c-1.07,0-1.61-.42-1.61-1.26a1.36,1.36,0,0,1,.42-1.08,4,4,0,0,1,1.42-.62,7.61,7.61,0,0,0,4-2.07,6.1,6.1,0,0,0,1.15-4V64.23c0-1-.26-1.44-.77-1.44H237a.68.68,0,0,0-.65.31,2.07,2.07,0,0,0-.2,1V81a6.32,6.32,0,0,0,1.31,4.23,7.8,7.8,0,0,0,4.15,2.25,4,4,0,0,1,1.5.62,1.36,1.36,0,0,1,.42,1.08c0,.84-.56,1.26-1.69,1.26-1.33,0-3.18-.06-5.53-.18s-4-.18-5-.18-2.61.06-4.76.18a48.64,48.64,0,0,1-5.15.27A2.17,2.17,0,0,1,220.14,90.12Z"/><path class="cls-1" d="M281.93,90.21a1.06,1.06,0,0,1-.54-.9c0-.77.66-1.35,2-1.7a9.44,9.44,0,0,0,4-2.12,5.84,5.84,0,0,0,1.16-4.09V40.67a6.92,6.92,0,0,0-1-4.27,7.1,7.1,0,0,0-3.88-2c-1.33-.3-2-.89-2-1.79a1.06,1.06,0,0,1,.5-.95,2.49,2.49,0,0,1,1.34-.31q2.31,0,6.31.18t5.91.18q6.15,0,14.61-.18c1.58-.06,3-.15,4.11-.27s1.83-.18,2-.18q1.62,0,1.77,1.35l.54,4a52.64,52.64,0,0,1,.69,6.84,2,2,0,0,1-.31,1.17.89.89,0,0,1-.76.44c-.52,0-.93-.41-1.23-1.25-.42-1.26-.81-2.45-1.2-3.56a7.64,7.64,0,0,0-1.19-2.38,6.67,6.67,0,0,0-5.45-2.7h-7.15a3.75,3.75,0,0,0-2.57,1,3.3,3.3,0,0,0-1.12,2.61V56.22q0,2.07,1.77,2.07h7A3.3,3.3,0,0,0,310,57.12a12.15,12.15,0,0,0,1.65-3.86c.31-1.2.79-1.8,1.46-1.8a.83.83,0,0,1,.69.49,2.42,2.42,0,0,1,.31,1.31q-.31,3.59-.31,6.92,0,4.59.23,7.28v.45c0,1.08-.26,1.62-.77,1.62a1.33,1.33,0,0,1-1-.67,4.45,4.45,0,0,1-.73-1.85,12,12,0,0,0-1.46-3.82A2.68,2.68,0,0,0,307.75,62H300.6a2.28,2.28,0,0,0-1.65.49,2.31,2.31,0,0,0-.5,1.67V81.22c0,1.92.35,3.27,1,4a4.25,4.25,0,0,0,3.34,1.17h6.3c2.77,0,4.84-.6,6.23-1.8s2.84-3.6,4.38-7c.36-.77.82-1.17,1.38-1.17s.77.58.77,1.53q0,2.88-2.38,11.24A1.61,1.61,0,0,1,318,90.48l-9.22-.18q-9.84-.18-15.45-.18c-1,0-2.59.06-4.84.18a49.33,49.33,0,0,1-5.23.27A2.28,2.28,0,0,1,281.93,90.21Z"/><path class="cls-1" d="M342.49,90.17a1,1,0,0,1-.54-.86c0-.9.64-1.53,1.92-1.88a8.83,8.83,0,0,0,4.3-2,5.64,5.64,0,0,0,1.23-4V40.58a6.58,6.58,0,0,0-1.07-4.23,7.73,7.73,0,0,0-4.08-2c-1.28-.23-1.92-.86-1.92-1.88a1,1,0,0,1,.54-.86,2.39,2.39,0,0,1,1.23-.31q1.92,0,5.46.18c2.25.12,3.89.18,4.91.18s2.62-.06,4.77-.18c2.46-.12,4.3-.18,5.53-.18a2.14,2.14,0,0,1,1.23.31,1.07,1.07,0,0,1,.46.95A1.4,1.4,0,0,1,366,33.7a3.62,3.62,0,0,1-1.46.67,8.73,8.73,0,0,0-4.15,2.16,6.35,6.35,0,0,0-1.07,4.14V81.31a5.65,5.65,0,0,0,1.23,4,9,9,0,0,0,4.22,2.12,4.05,4.05,0,0,1,1.5.67,1.37,1.37,0,0,1,.5,1.12c0,.78-.56,1.17-1.69,1.17-1.33,0-3.23-.06-5.69-.18Q356,90,354.47,90c-1.12,0-2.87.06-5.22.18a53.91,53.91,0,0,1-5.53.27A2.37,2.37,0,0,1,342.49,90.17Z"/><path class="cls-1" d="M370,90.17a1,1,0,0,1-.54-.86c0-.9.64-1.53,1.92-1.88a8.51,8.51,0,0,0,4.19-2,5.94,5.94,0,0,0,1.19-4.14V41.75a10.05,10.05,0,0,0-1-5.13,5.54,5.54,0,0,0-3.69-2.25c-1.33-.3-2-.89-2-1.79s.61-1.26,1.84-1.26,3.1.06,5.15.18l4.3.09a39.43,39.43,0,0,0,4.46-.36,50.51,50.51,0,0,1,5.46-.36q9.21,0,14.64,4.54t5.41,12.36a26.33,26.33,0,0,1-2,10.48,17.11,17.11,0,0,1-6.11,7.5,17.28,17.28,0,0,1-10,2.79,5.62,5.62,0,0,1-2.85-.63,1.81,1.81,0,0,1-1.07-1.52,1.23,1.23,0,0,1,.46-1,1.39,1.39,0,0,1,.92-.4,9.73,9.73,0,0,1,1.42.13,12.52,12.52,0,0,0,1.89.14q3.6,0,5.49-4.23t1.88-11.6c0-5.15-.88-9-2.65-11.46a8.57,8.57,0,0,0-7.41-3.74q-4.55,0-4.54,4.32l-.07,42.17a6.84,6.84,0,0,0,1.22,4.5,8,8,0,0,0,4.39,2.16,3.76,3.76,0,0,1,1.46.67,1.43,1.43,0,0,1,.46,1.12q0,1.17-1.62,1.17-2.91,0-5.84-.27c-2.25-.12-3.82-.18-4.69-.18a48.78,48.78,0,0,0-5.15.27c-.61.06-1.49.12-2.65.18s-2.16.09-3,.09A2.39,2.39,0,0,1,370,90.17Z"/><path class="cls-1" d="M415.26,90.17a1,1,0,0,1-.53-.86c0-.9.64-1.53,1.92-1.88a8.42,8.42,0,0,0,4.18-2,5.89,5.89,0,0,0,1.2-4.14V41.75a10.16,10.16,0,0,0-1-5.13,5.59,5.59,0,0,0-3.69-2.25c-1.33-.3-2-.89-2-1.79s.61-1.26,1.84-1.26c1.39,0,3.1.06,5.15.18l4.31.09a39.29,39.29,0,0,0,4.45-.36,50.66,50.66,0,0,1,5.46-.36q9.22,0,14.64,4.54t5.42,12.36a26.16,26.16,0,0,1-2,10.48,17,17,0,0,1-6.11,7.5,17.23,17.23,0,0,1-10,2.79,5.58,5.58,0,0,1-2.84-.63,1.8,1.8,0,0,1-1.08-1.52,1.26,1.26,0,0,1,.46-1,1.42,1.42,0,0,1,.93-.4,9.85,9.85,0,0,1,1.42.13,12.49,12.49,0,0,0,1.88.14q3.61,0,5.5-4.23t1.88-11.6c0-5.15-.88-9-2.65-11.46a8.59,8.59,0,0,0-7.42-3.74q-4.53,0-4.53,4.32l-.08,42.17a6.83,6.83,0,0,0,1.23,4.5,8,8,0,0,0,4.38,2.16,3.69,3.69,0,0,1,1.46.67,1.4,1.4,0,0,1,.46,1.12c0,.78-.54,1.17-1.61,1.17q-2.92,0-5.84-.27c-2.26-.12-3.82-.18-4.69-.18a48.64,48.64,0,0,0-5.15.27c-.61.06-1.5.12-2.65.18s-2.17.09-3,.09A2.39,2.39,0,0,1,415.26,90.17Z"/><path class="cls-1" d="M477.36,89.31a1,1,0,0,1,.5-.94,7.85,7.85,0,0,1,1.73-.68,6.7,6.7,0,0,0,3.19-2.51,9.69,9.69,0,0,0,1.57-4.59q2-16.45,3.08-37.31V40.22A7.82,7.82,0,0,0,487,38a3.44,3.44,0,0,0-1.19-1.53A13.92,13.92,0,0,0,481,34.19c-1.23-.29-1.84-.92-1.84-1.88s.74-1.26,2.22-1.26,3.31.09,5.61.27q5.54.36,8,.36a1.52,1.52,0,0,1,1,.45,2.11,2.11,0,0,1,.66,1.08,31.14,31.14,0,0,1,.84,3L498.57,40,510.1,72.86q.3.63.69.63c.25,0,.41-.15.46-.45l12.37-32.19q.93-5.22,1.54-7.73c.15-.78.49-1.17,1-1.17h3.15q3.23-.18,6-.54c2.76-.24,4.48-.36,5.14-.36q1.77,0,1.77,1.17a1.34,1.34,0,0,1-.42,1.08,6.06,6.06,0,0,1-1.42.8c-1.28.54-2.26,1-2.92,1.35a5.83,5.83,0,0,0-2.5,2.16,6.47,6.47,0,0,0-.65,3.51q.23,9.52.57,17.35t.81,15.47l.46,7.46a5.52,5.52,0,0,0,1.5,3.87,8.9,8.9,0,0,0,4.11,2.16,4.21,4.21,0,0,1,1.58.67,1.37,1.37,0,0,1,.5,1.12,1,1,0,0,1-.54.86,2.57,2.57,0,0,1-1.31.31c-1.33,0-3.23-.06-5.69-.18s-4.17-.18-5.15-.18-2.45.06-4.61.18a50.82,50.82,0,0,1-5.38.27,2.71,2.71,0,0,1-1.38-.31,1,1,0,0,1-.54-.86c0-1,.69-1.58,2.08-1.88a5.93,5.93,0,0,0,3.65-1.8,6.84,6.84,0,0,0,.88-4.23q-.3-14.75-.92-32.64c0-.42-.1-.63-.31-.63s-.36.24-.61.72L508.33,90.21c-.21.54-.51.81-.92.81a1,1,0,0,1-.62-.22,1,1,0,0,1-.38-.59q-2.54-7.45-9-24.9Q492,50.73,491.35,48.85q-.24-.54-.54-.54c-.31,0-.52.33-.62,1Q489,62,489,80.86a6.52,6.52,0,0,0,1.38,4.23,7.15,7.15,0,0,0,4.08,2.34,5.16,5.16,0,0,1,1.65.67,1.3,1.3,0,0,1,.58,1.12,1,1,0,0,1-.58.86,3,3,0,0,1-1.42.31c-1.54,0-3-.06-4.46-.18q-1.84-.18-3.15-.18c-.31,0-1.92.09-4.84.27q-2.31.18-3,.18Q477.36,90.48,477.36,89.31Z"/><path class="cls-1" d="M545.6,89.22a1.53,1.53,0,0,1,.5-1.17,5.91,5.91,0,0,1,1.58-.89,9.65,9.65,0,0,0,6.53-6.3q6.91-18.61,13.68-40.46c.46-1.62.83-3,1.11-4.18s.48-2,.58-2.38A27.26,27.26,0,0,0,574,32.22a6.59,6.59,0,0,0,2-1.85c.53-.75.85-1.18,1-1.3.41-.36.72-.3.92.18q.15.36.69,2.25,2.85,10.61,6.57,24t5.19,18.48l1.77,6.11a11.24,11.24,0,0,0,2.61,5,9.55,9.55,0,0,0,4.23,2.3c1.38.35,2.07,1,2.07,2,0,.72-.59,1.08-1.76,1.08l-5.31-.18q-3.45-.27-6.53-.27c-1.13,0-3,.06-5.53.18-2.36.12-4,.18-4.84.18a2.73,2.73,0,0,1-1.39-.31,1,1,0,0,1-.54-.95c0-1,.7-1.58,2.08-1.88a9.21,9.21,0,0,0,3.8-1.49,3.07,3.07,0,0,0,1.19-2.56,3.83,3.83,0,0,0-.07-.9q-.61-4-2.69-12.23a1.35,1.35,0,0,0-1.62-1.35H564c-.61,0-1.05.54-1.31,1.62q-2.29,8-2.84,11a8,8,0,0,0-.08,1.26,3.92,3.92,0,0,0,1.12,3,8.57,8.57,0,0,0,3.57,1.8c1.38.36,2.08,1,2.08,1.88a1,1,0,0,1-.5.86,2.55,2.55,0,0,1-1.35.31L561,90.21c-1.74-.12-3.17-.18-4.3-.18-.72,0-1.55,0-2.5.14s-1.65.13-2.11.13a34.64,34.64,0,0,1-4.31.27C546.32,90.57,545.6,90.12,545.6,89.22ZM576.73,64.5a2.6,2.6,0,0,0,.84-.09c.16-.06.23-.21.23-.45q0-.09-.15-1L572.27,42.2q-.39-1.26-.54-1.26a4.74,4.74,0,0,0-.54,1.17L564.74,63a1.87,1.87,0,0,0-.16.72c0,.54.49.81,1.46.81Z"/><path class="cls-1" d="M601.78,90.17a1,1,0,0,1-.54-.86c0-.9.64-1.53,1.92-1.88a8.88,8.88,0,0,0,4.31-2,5.64,5.64,0,0,0,1.23-4V40.58a6.51,6.51,0,0,0-1.08-4.23,7.69,7.69,0,0,0-4.07-2c-1.28-.23-1.92-.86-1.92-1.88a1,1,0,0,1,.54-.86,2.34,2.34,0,0,1,1.23-.31c1.28,0,3.09.06,5.45.18s3.89.18,4.92.18,2.61-.06,4.77-.18c2.45-.12,4.3-.18,5.53-.18a2.16,2.16,0,0,1,1.23.31,1.07,1.07,0,0,1,.46.95,1.4,1.4,0,0,1-.46,1.12,3.76,3.76,0,0,1-1.46.67,8.68,8.68,0,0,0-4.15,2.16,6.34,6.34,0,0,0-1.08,4.14V81.31a5.65,5.65,0,0,0,1.23,4,9,9,0,0,0,4.23,2.12,4.21,4.21,0,0,1,1.5.67,1.37,1.37,0,0,1,.5,1.12c0,.78-.57,1.17-1.69,1.17-1.34,0-3.23-.06-5.69-.18-2.26-.12-3.89-.18-4.92-.18s-2.87.06-5.23.18a53.77,53.77,0,0,1-5.53.27A2.39,2.39,0,0,1,601.78,90.17Z"/><path class="cls-1" d="M629.56,90.21a1.08,1.08,0,0,1-.5-.9,1.43,1.43,0,0,1,.5-1.08,3,3,0,0,1,1.12-.62,10.31,10.31,0,0,0,4.15-2.12,5.31,5.31,0,0,0,1.23-3.91V40.22c0-2-.32-3.31-1-4a8.73,8.73,0,0,0-4-1.85c-1.33-.3-2-.92-2-1.88a1,1,0,0,1,.54-.86,2.39,2.39,0,0,1,1.23-.31c1.43,0,3.28.06,5.53.18s3.72.18,4.69.18,2.84-.06,5.3-.18,4.33-.18,5.61-.18a2.14,2.14,0,0,1,1.23.31,1.07,1.07,0,0,1,.46.95,1.4,1.4,0,0,1-.46,1.12,3.62,3.62,0,0,1-1.46.67,14.11,14.11,0,0,0-4.57,2A4.33,4.33,0,0,0,646,40V81a5.93,5.93,0,0,0,1,3.87c.67.78,1.92,1.17,3.77,1.17h8.37a7,7,0,0,0,3.15-.72,8.16,8.16,0,0,0,2.46-1.8A15.17,15.17,0,0,0,667,80.64a29,29,0,0,0,1.85-3.91q1.07-2.79,1.92-2.79a.82.82,0,0,1,.73.54,2.58,2.58,0,0,1,.27,1.17L671.56,77c-.71,2.94-1.23,5.19-1.53,6.75a47.11,47.11,0,0,0-.7,5.21c-.1,1.08-.51,1.62-1.22,1.62-1.7,0-5.41-.06-11.15-.18q-7.68-.27-15.37-.27l-7.07.27-3.69.18A2.14,2.14,0,0,1,629.56,90.21Z"/><path class="cls-1" d="M342.89,107.53a1,1,0,0,1-.73-.26.77.77,0,0,1-.21-.65,1.1,1.1,0,0,1,.23-.56,1.49,1.49,0,0,1,.51-.41,1.66,1.66,0,0,1,.72-.15.89.89,0,0,1,.72.27.85.85,0,0,1,.18.67,1,1,0,0,1-.21.54,1.33,1.33,0,0,1-.5.4A1.61,1.61,0,0,1,342.89,107.53Z"/><path class="cls-1" d="M346.57,107.53a1,1,0,0,1-.73-.26.77.77,0,0,1-.21-.65,1.1,1.1,0,0,1,.23-.56,1.32,1.32,0,0,1,.51-.41,1.66,1.66,0,0,1,.72-.15.89.89,0,0,1,.72.27.85.85,0,0,1,.18.67,1.13,1.13,0,0,1-.21.54,1.41,1.41,0,0,1-.5.4A1.64,1.64,0,0,1,346.57,107.53Z"/><path class="cls-1" d="M350.24,107.53a1,1,0,0,1-.72-.26.77.77,0,0,1-.21-.65,1.18,1.18,0,0,1,.22-.56,1.49,1.49,0,0,1,.51-.41,1.72,1.72,0,0,1,.72-.15.92.92,0,0,1,.73.27.85.85,0,0,1,.18.67,1.06,1.06,0,0,1-.22.54,1.29,1.29,0,0,1-.49.4A1.66,1.66,0,0,1,350.24,107.53Z"/><path class="cls-1" d="M356.08,102.65l.47-.46a3.61,3.61,0,0,0,.79.33,3.46,3.46,0,0,0,1,.13,3.54,3.54,0,0,0,1.58-.34,2.9,2.9,0,0,0,1.09-1,3.83,3.83,0,0,0,.57-1.47,3,3,0,0,0-.05-1.61,1.84,1.84,0,0,0-.8-1,2.63,2.63,0,0,0-1.32-.32,1.53,1.53,0,0,0-.89.19,1,1,0,0,0-.37.56c0,.2-.12.48-.22.83s-.19.75-.31,1.2-.25.92-.39,1.42-.26,1-.4,1.5-.26,1-.37,1.42l-.31,1.21c-.09.35-.15.62-.18.82a.5.5,0,0,0,0,.39.36.36,0,0,0,.23.17l.45.1a.55.55,0,0,1,.23.12.22.22,0,0,1,.08.19.3.3,0,0,1-.11.23.63.63,0,0,1-.34.08h-3.34a.36.36,0,0,1-.28-.08.28.28,0,0,1-.08-.2.27.27,0,0,1,.1-.22.56.56,0,0,1,.28-.12l.4-.08a.87.87,0,0,0,.4-.17.91.91,0,0,0,.24-.4c.05-.18.12-.45.22-.79s.2-.75.32-1.2l.4-1.44c.13-.51.27-1,.4-1.52s.26-1,.38-1.45.22-.86.3-1.21.15-.63.18-.82a.81.81,0,0,0,0-.4c0-.09-.12-.15-.27-.19l-.46-.1a.56.56,0,0,1-.22-.11.24.24,0,0,1-.07-.18.26.26,0,0,1,.12-.23.54.54,0,0,1,.33-.09h3.76a4.8,4.8,0,0,1,2.17.45,2.79,2.79,0,0,1,1.29,1.27,3.13,3.13,0,0,1,.16,2,3.47,3.47,0,0,1-.82,1.62,4.37,4.37,0,0,1-1.64,1.09,6.53,6.53,0,0,1-2.29.41,4.94,4.94,0,0,1-1.39-.15A4.18,4.18,0,0,1,356.08,102.65Zm2.42.42,1.59-.26.82,2.6a3,3,0,0,0,.23.62.78.78,0,0,0,.25.3.49.49,0,0,0,.28.09.61.61,0,0,0,.3-.08,1,1,0,0,0,.24-.23.38.38,0,0,1,.15-.09.36.36,0,0,1,.18,0,.21.21,0,0,1,.14.15.37.37,0,0,1-.05.26,1.79,1.79,0,0,1-.71.83,2,2,0,0,1-1.12.31,1.32,1.32,0,0,1-.6-.13,1.21,1.21,0,0,1-.47-.46,3.45,3.45,0,0,1-.37-.89Z"/><path class="cls-1" d="M364.93,104.16l1.06-.4,1-.38,1.07-.41.92-.35-.19.26a1.89,1.89,0,0,0,.1-.44c0-.17,0-.36,0-.58a1.56,1.56,0,0,0-.23-.87.7.7,0,0,0-.6-.34,1.38,1.38,0,0,0-.77.28,3.09,3.09,0,0,0-.74.78,5,5,0,0,0-.59,1.15,5.77,5.77,0,0,0-.29,1.42,2.54,2.54,0,0,0,.37,1.74,1.48,1.48,0,0,0,1.24.57,2.59,2.59,0,0,0,1-.18,2.44,2.44,0,0,0,.82-.54,2.33,2.33,0,0,0,.56-.86,1,1,0,0,1,.21-.23.33.33,0,0,1,.19-.06.25.25,0,0,1,.21.11.44.44,0,0,1,0,.35,2.47,2.47,0,0,1-.56,1.15,3.49,3.49,0,0,1-1.23.89,4.52,4.52,0,0,1-1.85.35,3.12,3.12,0,0,1-1.51-.34,2.05,2.05,0,0,1-.86-1,3.24,3.24,0,0,1-.21-1.51,5.4,5.4,0,0,1,.43-1.79,5.15,5.15,0,0,1,1-1.5,4.53,4.53,0,0,1,1.37-1,3.5,3.5,0,0,1,1.61-.38,2.08,2.08,0,0,1,1,.24,1.69,1.69,0,0,1,.64.66,2.24,2.24,0,0,1,.26.91.29.29,0,0,0,.07.19.17.17,0,0,0,.15.08c.08,0,.14,0,.17,0a.18.18,0,0,1,.06.15.31.31,0,0,1-.11.22,1.25,1.25,0,0,1-.4.22l-.84.29-1.12.41-1.2.43-1.09.4-1.1.39Z"/><path class="cls-1" d="M375.6,99.49l-2.86,10.18a1.12,1.12,0,0,0,0,.49c0,.11.15.17.33.21l.51.08a.49.49,0,0,1,.27.11.24.24,0,0,1,.08.19.28.28,0,0,1-.11.22.57.57,0,0,1-.31.1l-3.16.07a.32.32,0,0,1-.25-.06.25.25,0,0,1-.09-.2.31.31,0,0,1,.07-.2.9.9,0,0,1,.25-.16,1.73,1.73,0,0,0,.42-.17.67.67,0,0,0,.23-.21,1.19,1.19,0,0,0,.15-.32l3-10.29a1.52,1.52,0,0,1,.15-.34,1.09,1.09,0,0,1,.21-.26,1.38,1.38,0,0,1,.25-.19,1.48,1.48,0,0,1,.27-.1.82.82,0,0,1,.26,0c.22,0,.36.07.42.22A1,1,0,0,1,375.6,99.49Zm-3,2.67a.59.59,0,0,1-.27.14.26.26,0,0,1-.24-.06A.24.24,0,0,1,372,102a.69.69,0,0,1,.21-.32,5.51,5.51,0,0,1,2.52-1.47,5.42,5.42,0,0,1,1.52-.15,3.32,3.32,0,0,1,1.68.48,2.41,2.41,0,0,1,1,1.25,4.1,4.1,0,0,1,.14,2,4.89,4.89,0,0,1-.75,2.06,4.06,4.06,0,0,1-1.44,1.33,3.64,3.64,0,0,1-1.84.42,2.6,2.6,0,0,1-1.36-.38,1.72,1.72,0,0,1-.74-.94l.49-.24a1.62,1.62,0,0,0,.52.6,1.28,1.28,0,0,0,.74.24,1.92,1.92,0,0,0,1.17-.31,2.92,2.92,0,0,0,1-1.1,5.64,5.64,0,0,0,.59-1.87,4.36,4.36,0,0,0,0-1.54,1.82,1.82,0,0,0-.52-1,1.57,1.57,0,0,0-.9-.39,3.68,3.68,0,0,0-1.67.28A5.42,5.42,0,0,0,372.56,102.16Z"/><path class="cls-1" d="M384.67,100a3.18,3.18,0,0,1,1.67.47,2.51,2.51,0,0,1,1,1.27,3.93,3.93,0,0,1,.09,2,5.06,5.06,0,0,1-.56,1.57,4.49,4.49,0,0,1-1,1.23,4.14,4.14,0,0,1-1.32.79,4,4,0,0,1-1.55.24,3,3,0,0,1-1.63-.48,2.39,2.39,0,0,1-1-1.27,3.9,3.9,0,0,1-.09-1.95,5.29,5.29,0,0,1,.56-1.58,4.4,4.4,0,0,1,1-1.23,4.26,4.26,0,0,1,1.31-.78A3.9,3.9,0,0,1,384.67,100ZM383,106.9a1.41,1.41,0,0,0,.67-.08,2,2,0,0,0,.63-.37,3,3,0,0,0,.56-.65,4.72,4.72,0,0,0,.45-.9,6.91,6.91,0,0,0,.34-1.16,5.51,5.51,0,0,0,.13-1.64,1.91,1.91,0,0,0-.36-1,1.08,1.08,0,0,0-.78-.38,1.32,1.32,0,0,0-.65.08,1.82,1.82,0,0,0-.62.37,2.9,2.9,0,0,0-.54.64,4.82,4.82,0,0,0-.45.91,8.26,8.26,0,0,0-.33,1.15,5.61,5.61,0,0,0-.14,1.64,1.91,1.91,0,0,0,.35,1A1.06,1.06,0,0,0,383,106.9Z"/><path class="cls-1" d="M389,101.65a.18.18,0,0,1-.09-.17.71.71,0,0,1,.09-.3,2.05,2.05,0,0,1,.5-.6,2.44,2.44,0,0,1,.68-.4,2.36,2.36,0,0,1,.8-.13.92.92,0,0,1,.62.19.72.72,0,0,1,.23.58,2.47,2.47,0,0,1-.15.77c-.09.29-.2.59-.32.91s-.24.61-.34.89a2.69,2.69,0,0,0-.16.73h-.13a8.61,8.61,0,0,1,.64-1.69,6.62,6.62,0,0,1,.85-1.28,3.91,3.91,0,0,1,1-.81,2,2,0,0,1,1-.28,1.16,1.16,0,0,1,.9.33,1.23,1.23,0,0,1,.29.89,1.73,1.73,0,0,1-.16.71,1.18,1.18,0,0,1-.39.46.9.9,0,0,1-.51.15.58.58,0,0,1-.44-.14.45.45,0,0,1-.14-.33,1.13,1.13,0,0,1,.05-.32.91.91,0,0,0,0-.33.48.48,0,0,0-.09-.31.34.34,0,0,0-.29-.12,1.21,1.21,0,0,0-.79.41,5.06,5.06,0,0,0-.9,1.21,11.6,11.6,0,0,0-.83,2c-.12.37-.21.66-.26.88a2.22,2.22,0,0,0-.09.58.52.52,0,0,0,.08.31l.16.2a.41.41,0,0,1,.07.27.47.47,0,0,1-.16.35,1.3,1.3,0,0,1-.5.25,3,3,0,0,1-.8.09.78.78,0,0,1-.54-.17.61.61,0,0,1-.16-.5,2.64,2.64,0,0,1,.18-.85l1.25-3.8a1.83,1.83,0,0,0,.15-.87c0-.17-.13-.25-.27-.25a.63.63,0,0,0-.28.08,1.61,1.61,0,0,0-.35.29.85.85,0,0,1-.22.14A.17.17,0,0,1,389,101.65Z"/><path class="cls-1" d="M397.27,101.06l-.6-.12a.44.44,0,0,1-.21-.13.31.31,0,0,1-.06-.19.25.25,0,0,1,.12-.22.5.5,0,0,1,.33-.09h.68a.7.7,0,0,0,.33-.07,1.13,1.13,0,0,0,.27-.22l.83-1.15a.55.55,0,0,1,.22-.17.47.47,0,0,1,.24,0,.29.29,0,0,1,.22.07.31.31,0,0,1,.07.22,1.06,1.06,0,0,1,0,.23,1.65,1.65,0,0,1-.09.33l-1.71,5.62a1.82,1.82,0,0,0-.12,1.06.56.56,0,0,0,.56.27,1.65,1.65,0,0,0,.69-.15,2.24,2.24,0,0,0,.65-.55.69.69,0,0,1,.17-.13.25.25,0,0,1,.14,0,.2.2,0,0,1,.15.06.21.21,0,0,1,0,.18,1.08,1.08,0,0,1-.24.55,2.67,2.67,0,0,1-.62.58,3.29,3.29,0,0,1-.88.44,3.24,3.24,0,0,1-1.09.18,1.45,1.45,0,0,1-.91-.25,1,1,0,0,1-.34-.74,3.63,3.63,0,0,1,.18-1.2l1.13-3.56a1.36,1.36,0,0,0,.09-.55A.25.25,0,0,0,397.27,101.06Zm1.34,0,.22-.69H401c.2,0,.29.08.29.25a.35.35,0,0,1-.18.32.85.85,0,0,1-.48.12Z"/><path class="cls-1" d="M403.69,105.35a1.64,1.64,0,0,0-.16.87c0,.16.13.25.26.25a.63.63,0,0,0,.28-.08,2,2,0,0,0,.35-.29.71.71,0,0,1,.22-.15.2.2,0,0,1,.17,0,.17.17,0,0,1,.09.17,1.21,1.21,0,0,1-.09.3,2.09,2.09,0,0,1-.82.82,2.22,2.22,0,0,1-1.16.31,1.07,1.07,0,0,1-.74-.22.83.83,0,0,1-.26-.65,2.77,2.77,0,0,1,.21-1l1.27-3.4a1.68,1.68,0,0,0,.17-.87c0-.17-.13-.25-.28-.25a.63.63,0,0,0-.27.08,2.82,2.82,0,0,0-.36.29.72.72,0,0,1-.22.14.15.15,0,0,1-.16,0,.18.18,0,0,1-.09-.17.62.62,0,0,1,.1-.3,2,2,0,0,1,.8-.82,2.16,2.16,0,0,1,1.15-.31,1,1,0,0,1,.71.22.88.88,0,0,1,.28.65,2.91,2.91,0,0,1-.22,1.08Zm1.05-6.8a1.06,1.06,0,0,1-.78-.28.79.79,0,0,1-.22-.67A1.05,1.05,0,0,1,404,97a1.38,1.38,0,0,1,.51-.41,1.61,1.61,0,0,1,.74-.16,1,1,0,0,1,.78.28.81.81,0,0,1,.19.68A1.09,1.09,0,0,1,406,98a1.5,1.5,0,0,1-.52.41A1.65,1.65,0,0,1,404.74,98.55Z"/><path class="cls-1" d="M407.09,101.65a.18.18,0,0,1-.09-.17,1,1,0,0,1,.1-.3,2.15,2.15,0,0,1,.81-.83,2.39,2.39,0,0,1,1.19-.3,1.08,1.08,0,0,1,.68.19.67.67,0,0,1,.25.57,1.83,1.83,0,0,1-.09.52,6.49,6.49,0,0,1-.26.7c-.11.28-.25.61-.41,1s-.34.85-.53,1.39l0-.34a8.94,8.94,0,0,1,1-1.91,6.2,6.2,0,0,1,1.18-1.25,4.36,4.36,0,0,1,1.19-.67,3.28,3.28,0,0,1,1-.2,1.27,1.27,0,0,1,.94.28,1,1,0,0,1,.25.8,5,5,0,0,1-.28,1.24l-1.06,3a1.91,1.91,0,0,0-.16.87c0,.17.13.25.27.25a.56.56,0,0,0,.27-.08,1.77,1.77,0,0,0,.36-.28A.71.71,0,0,1,414,106a.25.25,0,0,1,.17,0,.18.18,0,0,1,.09.17,1,1,0,0,1-.1.3,2.22,2.22,0,0,1-.81.83,2.32,2.32,0,0,1-1.17.31,1.07,1.07,0,0,1-.74-.23.83.83,0,0,1-.25-.64,2.9,2.9,0,0,1,.2-1l1.07-3.08a2.11,2.11,0,0,0,.2-1.1c-.06-.21-.23-.31-.52-.31a1.68,1.68,0,0,0-.74.21,3.57,3.57,0,0,0-.87.64,6,6,0,0,0-.85,1.06,8,8,0,0,0-.71,1.5c-.11.32-.2.59-.27.78s-.11.35-.14.47a1.81,1.81,0,0,0,0,.29.87.87,0,0,0,.07.35.91.91,0,0,1,.06.35.62.62,0,0,1-.36.54,2,2,0,0,1-1,.2.54.54,0,0,1-.6-.38,2.2,2.2,0,0,1,.19-1.15l1.35-3.78a1.88,1.88,0,0,0,.16-.87c0-.17-.13-.25-.27-.25a.56.56,0,0,0-.27.08,1.89,1.89,0,0,0-.36.29.85.85,0,0,1-.22.14A.17.17,0,0,1,407.09,101.65Z"/><path class="cls-1" d="M421.51,107.39a5.29,5.29,0,0,1-1,2.22,4.52,4.52,0,0,1-1.78,1.33,6.4,6.4,0,0,1-2.42.43,2.57,2.57,0,0,1-1.39-.29.85.85,0,0,1-.46-.75.73.73,0,0,1,.22-.54.78.78,0,0,1,.58-.22,1,1,0,0,1,.54.16,4,4,0,0,1,.49.35,5,5,0,0,0,.49.35,1,1,0,0,0,.52.16,2.19,2.19,0,0,0,1.85-1,4,4,0,0,0,.56-1.37l1-4.16.25.17a7.34,7.34,0,0,1-1,1.78,4.47,4.47,0,0,1-1.28,1.13,2.84,2.84,0,0,1-1.46.4,1.74,1.74,0,0,1-.93-.24,1.4,1.4,0,0,1-.59-.73,2.86,2.86,0,0,1-.13-1.26,5.57,5.57,0,0,1,.37-1.59,6.05,6.05,0,0,1,3.58-3.43,5.46,5.46,0,0,1,1.76-.29,5.6,5.6,0,0,1,1.1.09,1.64,1.64,0,0,1,.63.25.41.41,0,0,1,.19.36.42.42,0,0,1-.11.27l-.19.18a.5.5,0,0,0-.14.27Zm-4.26-2.22a2.72,2.72,0,0,0,.06.86.9.9,0,0,0,.29.45.77.77,0,0,0,.45.14,1.42,1.42,0,0,0,.82-.31,4.38,4.38,0,0,0,.82-.84,8.72,8.72,0,0,0,.74-1.2,8.23,8.23,0,0,0,.54-1.38,6.42,6.42,0,0,0,.26-1.38,1.07,1.07,0,0,0-.07-.61.42.42,0,0,0-.39-.19,2.12,2.12,0,0,0-.95.24,3.58,3.58,0,0,0-.92.68,5.79,5.79,0,0,0-.79,1,6.42,6.42,0,0,0-.58,1.21A5.45,5.45,0,0,0,417.25,105.17Z"/><path class="cls-1" d="M431.1,99.49l-2.85,10.18a1,1,0,0,0,0,.49c0,.11.14.17.33.21l.5.08a.53.53,0,0,1,.28.11.27.27,0,0,1,.08.19.26.26,0,0,1-.12.22.51.51,0,0,1-.3.1l-3.17.07a.31.31,0,0,1-.24-.06.26.26,0,0,1-.1-.2.32.32,0,0,1,.08-.2.77.77,0,0,1,.25-.16,1.63,1.63,0,0,0,.41-.17.83.83,0,0,0,.24-.21,1.19,1.19,0,0,0,.15-.32l3-10.29a1.51,1.51,0,0,1,.14-.34,1.12,1.12,0,0,1,.22-.26,1.1,1.1,0,0,1,.25-.19,1.08,1.08,0,0,1,.27-.1.78.78,0,0,1,.26,0,.41.41,0,0,1,.42.22A1,1,0,0,1,431.1,99.49Zm-3,2.67a.6.6,0,0,1-.26.14.25.25,0,0,1-.3-.32.69.69,0,0,1,.21-.32,5.59,5.59,0,0,1,1.17-.91,5.41,5.41,0,0,1,1.36-.56,5.35,5.35,0,0,1,1.51-.15,3.36,3.36,0,0,1,1.69.48,2.46,2.46,0,0,1,1,1.25,4.11,4.11,0,0,1,.13,2,4.75,4.75,0,0,1-.74,2.06,4.06,4.06,0,0,1-1.44,1.33,3.68,3.68,0,0,1-1.85.42,2.66,2.66,0,0,1-1.36-.38,1.77,1.77,0,0,1-.74-.94l.5-.24a1.6,1.6,0,0,0,.51.6,1.33,1.33,0,0,0,.74.24,1.92,1.92,0,0,0,1.17-.31,3,3,0,0,0,1-1.1,5.64,5.64,0,0,0,.58-1.87,4.14,4.14,0,0,0,0-1.54,1.88,1.88,0,0,0-.51-1,1.6,1.6,0,0,0-.91-.39,3.7,3.7,0,0,0-1.67.28A5.65,5.65,0,0,0,428.06,102.16Z"/><path class="cls-1" d="M440.18,100a3.14,3.14,0,0,1,1.66.47,2.41,2.41,0,0,1,1,1.27,3.71,3.71,0,0,1,.09,2,4.82,4.82,0,0,1-.56,1.57,4.46,4.46,0,0,1-1,1.23,4.19,4.19,0,0,1-1.33.79,4,4,0,0,1-1.55.24,3,3,0,0,1-1.62-.48,2.45,2.45,0,0,1-1-1.27,3.9,3.9,0,0,1-.09-1.95,5,5,0,0,1,.57-1.58,4.4,4.4,0,0,1,1-1.23,4.14,4.14,0,0,1,1.31-.78A3.9,3.9,0,0,1,440.18,100Zm-1.68,6.86a1.4,1.4,0,0,0,.67-.08,2.21,2.21,0,0,0,.64-.37,3,3,0,0,0,.55-.65,4.73,4.73,0,0,0,.46-.9,8,8,0,0,0,.33-1.16,5.56,5.56,0,0,0,.14-1.64,1.83,1.83,0,0,0-.37-1,1.06,1.06,0,0,0-.77-.38,1.34,1.34,0,0,0-.66.08,1.79,1.79,0,0,0-.61.37,2.93,2.93,0,0,0-.55.64,4.82,4.82,0,0,0-.45.91,8.26,8.26,0,0,0-.33,1.15,5.56,5.56,0,0,0-.13,1.64,1.83,1.83,0,0,0,.35,1A1,1,0,0,0,438.5,106.9Z"/><path class="cls-1" d="M445.05,106.5q0-.23,0-.63c0-.27,0-.58.07-.91s.06-.68.09-1,.06-.7.08-1,0-.62,0-.87a1.41,1.41,0,0,0-.09-.57.32.32,0,0,0-.3-.18.41.41,0,0,0-.26.09.81.81,0,0,0-.21.35.62.62,0,0,1-.16.24.22.22,0,0,1-.17.07.2.2,0,0,1-.18-.09.34.34,0,0,1,0-.26,1.56,1.56,0,0,1,.21-.55,1.81,1.81,0,0,1,.41-.51,1.93,1.93,0,0,1,.59-.38,2,2,0,0,1,.75-.14.86.86,0,0,1,.82.39,2.43,2.43,0,0,1,.23,1.19c0,.24,0,.52,0,.83s0,.65-.06,1-.05.67-.07,1-.05.6-.07.85a4.28,4.28,0,0,0,0,.58.88.88,0,0,0,.09.46.29.29,0,0,0,.26.13,1,1,0,0,0,.51-.22,5,5,0,0,0,.64-.61,6.43,6.43,0,0,0,.62-.87,4.84,4.84,0,0,0,.48-1,2.91,2.91,0,0,0,.19-1c0-.21,0-.39,0-.53a1.34,1.34,0,0,0-.08-.37,3.23,3.23,0,0,0-.15-.34,1.7,1.7,0,0,1-.16-.35,1,1,0,0,1,0-.31.65.65,0,0,1,.16-.4,1,1,0,0,1,.4-.29,1.33,1.33,0,0,1,.54-.11.79.79,0,0,1,.65.27,1.47,1.47,0,0,1,.23.88c0,.18,0,.42,0,.72s0,.63,0,1l-.06,1.12c0,.37,0,.73,0,1.07s0,.63,0,.87a1,1,0,0,0,.1.44.34.34,0,0,0,.29.14.84.84,0,0,0,.49-.25,4.29,4.29,0,0,0,.62-.68,7.34,7.34,0,0,0,.6-1,7.82,7.82,0,0,0,.47-1.16,4.64,4.64,0,0,0,.2-1.21,1,1,0,0,0,0-.38,1,1,0,0,0-.26-.3,1,1,0,0,1-.26-.34.89.89,0,0,1,.21-1,.89.89,0,0,1,.65-.23.81.81,0,0,1,.68.31,1.48,1.48,0,0,1,.2,1,6.08,6.08,0,0,1-.33,1.78,8.31,8.31,0,0,1-1.85,3.08,5.74,5.74,0,0,1-1.2,1,2.41,2.41,0,0,1-1.17.35,1,1,0,0,1-.7-.22,1.1,1.1,0,0,1-.27-.7c0-.15,0-.35,0-.59s0-.51,0-.82,0-.61.07-.92l.22.08a8.05,8.05,0,0,1-.79,1.33,5.54,5.54,0,0,1-.93,1,3.65,3.65,0,0,1-1,.63,2.28,2.28,0,0,1-.91.22.87.87,0,0,1-.73-.3A1.34,1.34,0,0,1,445.05,106.5Z"/><path class="cls-1" d="M456.44,104.16l1.06-.4,1-.38,1.07-.41.91-.35-.18.26a2.63,2.63,0,0,0,.09-.44,3.37,3.37,0,0,0,0-.58,1.56,1.56,0,0,0-.22-.87.73.73,0,0,0-.61-.34,1.35,1.35,0,0,0-.76.28,3.12,3.12,0,0,0-.75.78,5,5,0,0,0-.58,1.15,5.34,5.34,0,0,0-.29,1.42,2.6,2.6,0,0,0,.36,1.74,1.48,1.48,0,0,0,1.25.57,2.53,2.53,0,0,0,1.77-.72,2.33,2.33,0,0,0,.56-.86.8.8,0,0,1,.21-.23.33.33,0,0,1,.19-.06.25.25,0,0,1,.21.11.44.44,0,0,1,0,.35,2.49,2.49,0,0,1-.57,1.15,3.32,3.32,0,0,1-1.23.89,4.47,4.47,0,0,1-1.84.35,3.09,3.09,0,0,1-1.51-.34,2,2,0,0,1-.86-1,3.37,3.37,0,0,1-.22-1.51A5.41,5.41,0,0,1,456,103a5.33,5.33,0,0,1,1-1.5,4.7,4.7,0,0,1,1.38-1A3.46,3.46,0,0,1,460,100a2.09,2.09,0,0,1,1,.24,1.69,1.69,0,0,1,.64.66,2.41,2.41,0,0,1,.26.91.29.29,0,0,0,.06.19.17.17,0,0,0,.16.08.23.23,0,0,1,.17,0,.17.17,0,0,1,.05.15.3.3,0,0,1-.1.22,1.33,1.33,0,0,1-.41.22l-.83.29-1.12.41-1.2.43-1.1.4-1.1.39Z"/><path class="cls-1" d="M463.71,101.65a.17.17,0,0,1-.1-.17.62.62,0,0,1,.1-.3,2,2,0,0,1,.49-.6,2.65,2.65,0,0,1,.69-.4,2.3,2.3,0,0,1,.79-.13.89.89,0,0,1,.62.19.72.72,0,0,1,.23.58,2.74,2.74,0,0,1-.14.77c-.1.29-.21.59-.33.91s-.23.61-.33.89a2.77,2.77,0,0,0-.17.73h-.12a8.6,8.6,0,0,1,.63-1.69,6.62,6.62,0,0,1,.85-1.28,3.91,3.91,0,0,1,1-.81,2,2,0,0,1,1-.28,1.16,1.16,0,0,1,.9.33,1.28,1.28,0,0,1,.3.89,1.73,1.73,0,0,1-.17.71,1.25,1.25,0,0,1-.38.46,1,1,0,0,1-.51.15.57.57,0,0,1-.44-.14.43.43,0,0,1-.15-.33.87.87,0,0,1,.06-.32,1.2,1.2,0,0,0,0-.33.48.48,0,0,0-.09-.31.35.35,0,0,0-.3-.12,1.23,1.23,0,0,0-.79.41,5.34,5.34,0,0,0-.89,1.21,10.85,10.85,0,0,0-.83,2c-.12.37-.21.66-.27.88a2.22,2.22,0,0,0-.09.58.52.52,0,0,0,.08.31l.16.2a.41.41,0,0,1,.08.27.49.49,0,0,1-.17.35,1.23,1.23,0,0,1-.5.25,3,3,0,0,1-.79.09.79.79,0,0,1-.55-.17.64.64,0,0,1-.16-.5,2.64,2.64,0,0,1,.18-.85l1.26-3.8a1.92,1.92,0,0,0,.14-.87c0-.17-.13-.25-.27-.25a.63.63,0,0,0-.27.08,1.89,1.89,0,0,0-.36.29.85.85,0,0,1-.22.14A.15.15,0,0,1,463.71,101.65Z"/><path class="cls-1" d="M479.8,105.36a2.35,2.35,0,0,0-.11.88c0,.16.12.24.25.24a.47.47,0,0,0,.27-.08,1.76,1.76,0,0,0,.35-.28,1.06,1.06,0,0,1,.22-.16.22.22,0,0,1,.16,0,.18.18,0,0,1,.1.17.75.75,0,0,1-.1.3,2.1,2.1,0,0,1-.8.82,2.08,2.08,0,0,1-1.09.31.93.93,0,0,1-.68-.23,1,1,0,0,1-.22-.67,3,3,0,0,1,0-.4c0-.15.06-.33.11-.54s.13-.49.22-.81l.36-1.19.15.26a7.26,7.26,0,0,1-1,1.94,4.58,4.58,0,0,1-1.33,1.22,2.84,2.84,0,0,1-1.45.42,1.57,1.57,0,0,1-1.29-.56,2.32,2.32,0,0,1-.34-1.75,5,5,0,0,1,.4-1.55,6.14,6.14,0,0,1,.85-1.43,6.44,6.44,0,0,1,1.23-1.16,5.63,5.63,0,0,1,1.52-.79,5.11,5.11,0,0,1,1.71-.28,5.64,5.64,0,0,1,1.11.09,1.71,1.71,0,0,1,.66.26.46.46,0,0,1,.2.38.42.42,0,0,1-.12.27l-.2.2a.51.51,0,0,0-.15.27Zm-4.56-.18a1.85,1.85,0,0,0,.13,1.14.64.64,0,0,0,.59.33,1.4,1.4,0,0,0,.76-.28,4,4,0,0,0,.82-.79,7.27,7.27,0,0,0,.76-1.16,8.48,8.48,0,0,0,.62-1.4,9.12,9.12,0,0,0,.38-1.54.77.77,0,0,0-.06-.59.44.44,0,0,0-.4-.18,2.07,2.07,0,0,0-1,.25,4,4,0,0,0-.94.69,5.84,5.84,0,0,0-.8,1,5.5,5.5,0,0,0-.59,1.22A5,5,0,0,0,475.24,105.18Z"/><path class="cls-1" d="M482.9,101.65a.18.18,0,0,1-.09-.17.62.62,0,0,1,.1-.3,2.08,2.08,0,0,1,.81-.83,2.35,2.35,0,0,1,1.18-.3,1.11,1.11,0,0,1,.69.19.7.7,0,0,1,.25.57,1.83,1.83,0,0,1-.09.52c-.06.19-.15.43-.26.7s-.25.61-.41,1-.34.85-.54,1.39l0-.34a8.94,8.94,0,0,1,1-1.91,6.49,6.49,0,0,1,1.18-1.25,4.67,4.67,0,0,1,1.19-.67,3.39,3.39,0,0,1,1.06-.2,1.29,1.29,0,0,1,.94.28,1,1,0,0,1,.24.8,4.56,4.56,0,0,1-.28,1.24l-1.05,3a1.78,1.78,0,0,0-.16.87c0,.17.13.25.27.25a.63.63,0,0,0,.27-.08,1.77,1.77,0,0,0,.36-.28.71.71,0,0,1,.22-.15.22.22,0,0,1,.16,0,.18.18,0,0,1,.09.17.62.62,0,0,1-.1.3,2.08,2.08,0,0,1-.81.83,2.32,2.32,0,0,1-1.17.31,1,1,0,0,1-.73-.23.84.84,0,0,1-.26-.64,3.14,3.14,0,0,1,.2-1l1.08-3.08a2.18,2.18,0,0,0,.19-1.1c-.05-.21-.23-.31-.52-.31a1.71,1.71,0,0,0-.74.21,3.36,3.36,0,0,0-.86.64,5.55,5.55,0,0,0-.85,1.06,7.46,7.46,0,0,0-.71,1.5c-.12.32-.21.59-.27.78a3.14,3.14,0,0,0-.14.47,1.11,1.11,0,0,0,0,.29.88.88,0,0,0,.06.35.91.91,0,0,1,.07.35.62.62,0,0,1-.36.54,2,2,0,0,1-1,.2.54.54,0,0,1-.6-.38,2.07,2.07,0,0,1,.18-1.15l1.35-3.78a1.75,1.75,0,0,0,.16-.87c0-.17-.13-.25-.27-.25a.63.63,0,0,0-.27.08,2.26,2.26,0,0,0-.36.29.85.85,0,0,1-.22.14A.15.15,0,0,1,482.9,101.65Z"/><path class="cls-1" d="M499.9,98l-2.14,7.32a2.92,2.92,0,0,0-.14.68.68.68,0,0,0,.05.36.24.24,0,0,0,.21.1.52.52,0,0,0,.28-.08,2.1,2.1,0,0,0,.35-.28,1.42,1.42,0,0,1,.22-.16.25.25,0,0,1,.17,0,.18.18,0,0,1,.09.17.75.75,0,0,1-.1.3,2,2,0,0,1-.48.6,2.29,2.29,0,0,1-.65.39,2.06,2.06,0,0,1-.73.14.81.81,0,0,1-.92-.9,3,3,0,0,1,.06-.55c0-.21.11-.49.21-.83s.21-.76.36-1.28l.24.12a8.4,8.4,0,0,1-1.15,1.91,4.94,4.94,0,0,1-1.34,1.14,2.71,2.71,0,0,1-1.35.39,1.65,1.65,0,0,1-1.36-.59,2.52,2.52,0,0,1-.35-1.83,5.27,5.27,0,0,1,.55-2,6.19,6.19,0,0,1,1.2-1.63,5.63,5.63,0,0,1,1.67-1.12,4.69,4.69,0,0,1,1.92-.4,2.57,2.57,0,0,1,.89.13,1.45,1.45,0,0,1,.58.39,1.07,1.07,0,0,1,.28.55l-1,.22a1,1,0,0,0-.34-.5,1.08,1.08,0,0,0-.64-.16,2.19,2.19,0,0,0-1,.26,3.74,3.74,0,0,0-.93.74,5.32,5.32,0,0,0-.79,1.06,6,6,0,0,0-.56,1.26,4.69,4.69,0,0,0-.23,1.31,1.66,1.66,0,0,0,.2,1,.76.76,0,0,0,.62.3,1.38,1.38,0,0,0,.77-.28,4.57,4.57,0,0,0,.84-.78,7.06,7.06,0,0,0,1.37-2.57l1.42-4.67a1.85,1.85,0,0,0,.12-.87c0-.17-.13-.25-.27-.25a.56.56,0,0,0-.27.08,1.89,1.89,0,0,0-.36.29.85.85,0,0,1-.22.14.17.17,0,0,1-.17,0,.18.18,0,0,1-.09-.17,1,1,0,0,1,.1-.3,2.19,2.19,0,0,1,.49-.6,2,2,0,0,1,.67-.39,2.16,2.16,0,0,1,.81-.14,1.07,1.07,0,0,1,.72.21.88.88,0,0,1,.25.65A3.1,3.1,0,0,1,499.9,98Z"/><path class="cls-1" d="M504.49,104.16l1.05-.4,1-.38,1.07-.41.92-.35-.18.26a2.63,2.63,0,0,0,.09-.44,4.8,4.8,0,0,0,0-.58,1.49,1.49,0,0,0-.23-.87.7.7,0,0,0-.6-.34,1.4,1.4,0,0,0-.77.28,3.27,3.27,0,0,0-.74.78,4.59,4.59,0,0,0-.58,1.15,5,5,0,0,0-.29,1.42,2.49,2.49,0,0,0,.36,1.74,1.48,1.48,0,0,0,1.25.57,2.53,2.53,0,0,0,.94-.18,2.44,2.44,0,0,0,.82-.54,2.22,2.22,0,0,0,.56-.86,1,1,0,0,1,.21-.23.35.35,0,0,1,.19-.06.25.25,0,0,1,.21.11.41.41,0,0,1,0,.35,2.47,2.47,0,0,1-.56,1.15,3.32,3.32,0,0,1-1.23.89,4.51,4.51,0,0,1-1.84.35,3.09,3.09,0,0,1-1.51-.34,2,2,0,0,1-.87-1,3.38,3.38,0,0,1-.21-1.51,5.17,5.17,0,0,1,.44-1.79,5.12,5.12,0,0,1,1-1.5,4.66,4.66,0,0,1,1.37-1A3.53,3.53,0,0,1,508,100a2.05,2.05,0,0,1,1,.24,1.62,1.62,0,0,1,.64.66,2.1,2.1,0,0,1,.26.91.36.36,0,0,0,.07.19.17.17,0,0,0,.15.08.24.24,0,0,1,.18,0,.21.21,0,0,1,.05.15.28.28,0,0,1-.11.22,1.25,1.25,0,0,1-.4.22l-.84.29-1.11.41-1.21.43-1.09.4-1.1.39Z"/><path class="cls-1" d="M515.19,98,513,105.19a2.17,2.17,0,0,0-.15,1,.31.31,0,0,0,.34.25,1.07,1.07,0,0,0,.5-.13,1.56,1.56,0,0,0,.49-.41.45.45,0,0,1,.17-.13.2.2,0,0,1,.15,0,.19.19,0,0,1,.12.14.54.54,0,0,1-.07.3,1.64,1.64,0,0,1-.5.67,2.63,2.63,0,0,1-.85.49,2.73,2.73,0,0,1-1,.19,1.15,1.15,0,0,1-.78-.22.85.85,0,0,1-.27-.66,3.68,3.68,0,0,1,.2-1.13l2.25-7.23a1.77,1.77,0,0,0,.13-.87c0-.17-.13-.25-.27-.25a.67.67,0,0,0-.28.08,1.88,1.88,0,0,0-.35.29.85.85,0,0,1-.22.14.15.15,0,0,1-.16,0,.17.17,0,0,1-.1-.17,1,1,0,0,1,.1-.3,2.15,2.15,0,0,1,1.17-1,2.16,2.16,0,0,1,.81-.14,1,1,0,0,1,.73.22.87.87,0,0,1,.27.64A3.43,3.43,0,0,1,515.19,98Z"/><path class="cls-1" d="M516.77,104.16l1.06-.4,1-.38,1.07-.41.91-.35-.18.26a2.63,2.63,0,0,0,.09-.44,3.37,3.37,0,0,0,0-.58,1.56,1.56,0,0,0-.22-.87.73.73,0,0,0-.61-.34,1.35,1.35,0,0,0-.76.28,3.12,3.12,0,0,0-.75.78,5,5,0,0,0-.58,1.15,5.34,5.34,0,0,0-.29,1.42,2.6,2.6,0,0,0,.36,1.74,1.48,1.48,0,0,0,1.25.57,2.53,2.53,0,0,0,1.77-.72,2.33,2.33,0,0,0,.56-.86.8.8,0,0,1,.21-.23.33.33,0,0,1,.19-.06.25.25,0,0,1,.21.11.44.44,0,0,1,0,.35,2.49,2.49,0,0,1-.57,1.15,3.32,3.32,0,0,1-1.23.89,4.47,4.47,0,0,1-1.84.35,3.09,3.09,0,0,1-1.51-.34,2,2,0,0,1-.86-1,3.37,3.37,0,0,1-.22-1.51,5.41,5.41,0,0,1,.44-1.79,5.33,5.33,0,0,1,1-1.5,4.7,4.7,0,0,1,1.38-1,3.46,3.46,0,0,1,1.6-.38,2.09,2.09,0,0,1,1.05.24,1.69,1.69,0,0,1,.64.66,2.41,2.41,0,0,1,.26.91.29.29,0,0,0,.06.19.17.17,0,0,0,.16.08.23.23,0,0,1,.17,0,.17.17,0,0,1,.05.15.3.3,0,0,1-.1.22,1.33,1.33,0,0,1-.41.22l-.83.29-1.12.41-1.2.43-1.1.4-1.1.39Z"/><path class="cls-1" d="M527.77,100.68a1.73,1.73,0,0,0-1,.39,3.42,3.42,0,0,0-.88,1.1,4.79,4.79,0,0,0-.51,1.59,3.47,3.47,0,0,0,.2,2.11,1.28,1.28,0,0,0,1.22.7,2,2,0,0,0,.78-.17,2.14,2.14,0,0,0,.71-.5,2.32,2.32,0,0,0,.5-.8,1.83,1.83,0,0,1,.21-.27.27.27,0,0,1,.22-.08.21.21,0,0,1,.19.11.6.6,0,0,1,0,.36,2.71,2.71,0,0,1-.3.78,3.1,3.1,0,0,1-.65.77,3.37,3.37,0,0,1-1,.58,4,4,0,0,1-1.34.22,2.36,2.36,0,0,1-2.11-1,3.55,3.55,0,0,1-.37-2.6,5.08,5.08,0,0,1,.53-1.55,4.78,4.78,0,0,1,1-1.27,4.36,4.36,0,0,1,1.32-.84A4.07,4.07,0,0,1,528,100a2.41,2.41,0,0,1,1.14.24,1.69,1.69,0,0,1,.68.64,1.53,1.53,0,0,1,.2.85,1.07,1.07,0,0,1-.3.78.94.94,0,0,1-.65.27.67.67,0,0,1-.49-.16.48.48,0,0,1-.17-.4,1.14,1.14,0,0,1,.07-.41,2,2,0,0,0,.07-.44.71.71,0,0,0-.21-.53A.77.77,0,0,0,527.77,100.68Z"/><path class="cls-1" d="M532.19,101.06l-.61-.12a.37.37,0,0,1-.2-.13.32.32,0,0,1-.07-.19.25.25,0,0,1,.12-.22.54.54,0,0,1,.33-.09h.69a.72.72,0,0,0,.33-.07,1.13,1.13,0,0,0,.27-.22l.83-1.15a.49.49,0,0,1,.22-.17.46.46,0,0,1,.23,0,.32.32,0,0,1,.23.07.31.31,0,0,1,.07.22c0,.06,0,.13,0,.23a2.77,2.77,0,0,1-.09.33l-1.71,5.62a1.74,1.74,0,0,0-.12,1.06c.08.18.27.27.56.27a1.57,1.57,0,0,0,.68-.15,2.14,2.14,0,0,0,.66-.55.69.69,0,0,1,.17-.13.23.23,0,0,1,.14,0,.2.2,0,0,1,.15.06.24.24,0,0,1,0,.18,1.1,1.1,0,0,1-.25.55,2.43,2.43,0,0,1-.61.58,3.36,3.36,0,0,1-.89.44,3.18,3.18,0,0,1-1.08.18,1.48,1.48,0,0,1-.92-.25,1,1,0,0,1-.34-.74,3.68,3.68,0,0,1,.19-1.2l1.12-3.56a1.25,1.25,0,0,0,.1-.55A.27.27,0,0,0,532.19,101.06Zm1.33,0,.22-.69h2.14c.19,0,.29.08.29.25a.35.35,0,0,1-.18.32.87.87,0,0,1-.49.12Z"/><path class="cls-1" d="M537,101.65a.18.18,0,0,1-.09-.17.71.71,0,0,1,.09-.3,2.19,2.19,0,0,1,.49-.6,2.65,2.65,0,0,1,.69-.4,2.3,2.3,0,0,1,.79-.13.93.93,0,0,1,.63.19.72.72,0,0,1,.22.58,2.74,2.74,0,0,1-.14.77c-.09.29-.2.59-.33.91s-.23.61-.33.89a2.77,2.77,0,0,0-.17.73h-.12a8.61,8.61,0,0,1,.64-1.69,6.17,6.17,0,0,1,.84-1.28,3.77,3.77,0,0,1,1-.81,2,2,0,0,1,1-.28,1.15,1.15,0,0,1,.89.33,1.23,1.23,0,0,1,.3.89,1.73,1.73,0,0,1-.17.71,1.09,1.09,0,0,1-.38.46,1,1,0,0,1-.51.15.57.57,0,0,1-.44-.14.42.42,0,0,1-.14-.33.86.86,0,0,1,0-.32,1.2,1.2,0,0,0,.05-.33.48.48,0,0,0-.09-.31.35.35,0,0,0-.3-.12,1.23,1.23,0,0,0-.79.41,5.34,5.34,0,0,0-.89,1.21,10.85,10.85,0,0,0-.83,2c-.12.37-.21.66-.27.88a2.17,2.17,0,0,0-.08.58.53.53,0,0,0,.07.31l.16.2a.41.41,0,0,1,.08.27.49.49,0,0,1-.17.35,1.25,1.25,0,0,1-.49.25,3.09,3.09,0,0,1-.8.09.74.74,0,0,1-.54-.17.65.65,0,0,1-.17-.5,3.33,3.33,0,0,1,.18-.85l1.26-3.8a1.79,1.79,0,0,0,.14-.87c0-.17-.12-.25-.27-.25a.63.63,0,0,0-.27.08,1.61,1.61,0,0,0-.35.29,1.07,1.07,0,0,1-.22.14A.17.17,0,0,1,537,101.65Z"/><path class="cls-1" d="M546.07,105.35a1.75,1.75,0,0,0-.16.87c0,.16.13.25.26.25a.6.6,0,0,0,.28-.08,2,2,0,0,0,.35-.29A.85.85,0,0,1,547,106a.2.2,0,0,1,.17,0,.17.17,0,0,1,.09.17.71.71,0,0,1-.09.3,2.09,2.09,0,0,1-.82.82,2.22,2.22,0,0,1-1.16.31,1.07,1.07,0,0,1-.74-.22.86.86,0,0,1-.26-.65,3,3,0,0,1,.21-1l1.28-3.4a1.75,1.75,0,0,0,.16-.87c0-.17-.13-.25-.27-.25a.63.63,0,0,0-.28.08,2.27,2.27,0,0,0-.35.29,1.07,1.07,0,0,1-.22.14.17.17,0,0,1-.17,0,.18.18,0,0,1-.09-.17.75.75,0,0,1,.1-.3,2,2,0,0,1,.8-.82,2.19,2.19,0,0,1,1.16-.31,1,1,0,0,1,.7.22.88.88,0,0,1,.28.65,3.08,3.08,0,0,1-.21,1.08Zm1-6.8a1.06,1.06,0,0,1-.78-.28.79.79,0,0,1-.22-.67,1.13,1.13,0,0,1,.23-.58,1.34,1.34,0,0,1,.52-.41,1.54,1.54,0,0,1,.73-.16,1,1,0,0,1,.78.28.81.81,0,0,1,.19.68,1,1,0,0,1-.22.57,1.5,1.5,0,0,1-.52.41A1.65,1.65,0,0,1,547.12,98.55Z"/><path class="cls-1" d="M549.45,100.83a.28.28,0,0,1,.11-.23.53.53,0,0,1,.34-.09h1l.37-1.52a4.14,4.14,0,0,1,1-2.07,2.67,2.67,0,0,1,2-.72,1.64,1.64,0,0,1,1,.27.78.78,0,0,1,.34.63.81.81,0,0,1-.22.6.73.73,0,0,1-.58.23,1,1,0,0,1-.44-.1,3.14,3.14,0,0,1-.39-.24,3.85,3.85,0,0,0-.38-.23.78.78,0,0,0-.42-.11.86.86,0,0,0-.63.26,1.42,1.42,0,0,0-.35.68,1.74,1.74,0,0,0,0,.56c0,.2.07.41.12.62a4.9,4.9,0,0,1,.11.65,1.62,1.62,0,0,1,0,.62l-2,7.23c0,.15-.08.29-.1.41a2.14,2.14,0,0,0,0,.34.53.53,0,0,0,.1.32l.19.24a.41.41,0,0,1,.1.29.56.56,0,0,1-.23.42,1.58,1.58,0,0,1-.59.32,2.31,2.31,0,0,1-.75.12.6.6,0,0,1-.62-.35,1.77,1.77,0,0,1,.06-1l1.92-6.81a.86.86,0,0,0,0-.65c-.08-.14-.29-.23-.64-.27a.81.81,0,0,1-.32-.18A.31.31,0,0,1,549.45,100.83Zm2.08.47.28-.78h1.94a.75.75,0,0,1,.33.06.25.25,0,0,1,.11.23.36.36,0,0,1-.1.25.7.7,0,0,1-.28.17,1,1,0,0,1-.41.07Zm4.8,4a1.8,1.8,0,0,0-.17.87c0,.16.13.25.27.25a.63.63,0,0,0,.28-.08,2.39,2.39,0,0,0,.35-.29.71.71,0,0,1,.22-.15.18.18,0,0,1,.16,0,.14.14,0,0,1,.09.17.71.71,0,0,1-.09.3,2.06,2.06,0,0,1-.81.82,2.23,2.23,0,0,1-1.17.31,1.09,1.09,0,0,1-.74-.22.86.86,0,0,1-.25-.65,2.77,2.77,0,0,1,.21-1l1.27-3.4a1.8,1.8,0,0,0,.17-.87c0-.17-.14-.25-.28-.25a.63.63,0,0,0-.27.08,1.89,1.89,0,0,0-.36.29.85.85,0,0,1-.22.14.15.15,0,0,1-.16,0,.15.15,0,0,1-.09-.17.71.71,0,0,1,.09-.3,2.1,2.1,0,0,1,.8-.82,2.22,2.22,0,0,1,1.16-.31,1,1,0,0,1,.71.22.84.84,0,0,1,.27.65,2.68,2.68,0,0,1-.21,1.08Zm1-6.8a1,1,0,0,1-.77-.28.76.76,0,0,1-.22-.67,1.12,1.12,0,0,1,.22-.58,1.42,1.42,0,0,1,.52-.41,1.6,1.6,0,0,1,.73-.16,1,1,0,0,1,.78.28.81.81,0,0,1,.2.68,1,1,0,0,1-.23.57,1.38,1.38,0,0,1-.51.41A1.66,1.66,0,0,1,557.37,98.55Z"/><path class="cls-1" d="M563.24,100.68a1.71,1.71,0,0,0-1,.39,3.44,3.44,0,0,0-.89,1.1,4.57,4.57,0,0,0-.5,1.59,3.39,3.39,0,0,0,.2,2.11,1.27,1.27,0,0,0,1.21.7,2,2,0,0,0,.79-.17,2.1,2.1,0,0,0,.7-.5,2.18,2.18,0,0,0,.5-.8,2.71,2.71,0,0,1,.22-.27.25.25,0,0,1,.21-.08.2.2,0,0,1,.19.11.47.47,0,0,1,0,.36,2.23,2.23,0,0,1-.3.78,2.9,2.9,0,0,1-.65.77,3.19,3.19,0,0,1-1,.58,4,4,0,0,1-1.34.22,2.35,2.35,0,0,1-2.11-1,3.45,3.45,0,0,1-.37-2.6,4.94,4.94,0,0,1,1.49-2.82,4.13,4.13,0,0,1,1.32-.84,4,4,0,0,1,1.6-.31,2.46,2.46,0,0,1,1.14.24,1.66,1.66,0,0,1,.67.64,1.54,1.54,0,0,1,.21.85,1,1,0,0,1-.31.78.92.92,0,0,1-.64.27.7.7,0,0,1-.5-.16.48.48,0,0,1-.16-.4,1.4,1.4,0,0,1,.06-.41,1.56,1.56,0,0,0,.07-.44.71.71,0,0,0-.21-.53A.76.76,0,0,0,563.24,100.68Z"/><path class="cls-1" d="M572.23,105.36a2.35,2.35,0,0,0-.11.88c0,.16.12.24.25.24a.52.52,0,0,0,.28-.08,2.11,2.11,0,0,0,.34-.28,1.06,1.06,0,0,1,.22-.16.22.22,0,0,1,.16,0,.17.17,0,0,1,.1.17.62.62,0,0,1-.1.3,2,2,0,0,1-.8.82,2.07,2.07,0,0,1-1.08.31.92.92,0,0,1-.68-.23.91.91,0,0,1-.23-.67,2,2,0,0,1,0-.4,5.37,5.37,0,0,1,.1-.54c.06-.22.13-.49.22-.81s.22-.72.37-1.19l.15.26a7.57,7.57,0,0,1-1.05,1.94,4.58,4.58,0,0,1-1.33,1.22,2.82,2.82,0,0,1-1.45.42,1.57,1.57,0,0,1-1.29-.56,2.37,2.37,0,0,1-.34-1.75,5,5,0,0,1,.4-1.55,6.18,6.18,0,0,1,.86-1.43,6.1,6.1,0,0,1,1.22-1.16,5.79,5.79,0,0,1,1.52-.79,5.2,5.2,0,0,1,1.71-.28,5.64,5.64,0,0,1,1.11.09,1.59,1.59,0,0,1,.66.26.46.46,0,0,1,.2.38.47.47,0,0,1-.11.27l-.21.2a.51.51,0,0,0-.15.27Zm-4.56-.18a1.92,1.92,0,0,0,.13,1.14.65.65,0,0,0,.59.33,1.43,1.43,0,0,0,.77-.28,4,4,0,0,0,.81-.79,8.05,8.05,0,0,0,.77-1.16,8.45,8.45,0,0,0,.61-1.4,8.25,8.25,0,0,0,.38-1.54.82.82,0,0,0-.05-.59.46.46,0,0,0-.4-.18,2.11,2.11,0,0,0-1,.25,4,4,0,0,0-.94.69,5.84,5.84,0,0,0-.8,1,6,6,0,0,0-.59,1.22A5.42,5.42,0,0,0,567.67,105.18Z"/><path class="cls-1" d="M576.27,101.06l-.61-.12a.37.37,0,0,1-.2-.13.32.32,0,0,1-.07-.19.25.25,0,0,1,.12-.22.54.54,0,0,1,.33-.09h.68a.74.74,0,0,0,.34-.07,1.13,1.13,0,0,0,.27-.22l.82-1.15a.62.62,0,0,1,.22-.17.52.52,0,0,1,.24,0,.28.28,0,0,1,.22.07.31.31,0,0,1,.08.22c0,.06,0,.13,0,.23a2.77,2.77,0,0,1-.09.33l-1.71,5.62a1.66,1.66,0,0,0-.12,1.06c.08.18.27.27.56.27a1.57,1.57,0,0,0,.68-.15,2.14,2.14,0,0,0,.66-.55.54.54,0,0,1,.17-.13.23.23,0,0,1,.14,0,.2.2,0,0,1,.15.06.24.24,0,0,1,0,.18,1.2,1.2,0,0,1-.25.55,2.43,2.43,0,0,1-.61.58,3.36,3.36,0,0,1-.89.44,3.22,3.22,0,0,1-1.08.18,1.48,1.48,0,0,1-.92-.25,1,1,0,0,1-.34-.74,3.68,3.68,0,0,1,.19-1.2l1.12-3.56a1.25,1.25,0,0,0,.1-.55A.28.28,0,0,0,576.27,101.06Zm1.33,0,.22-.69H580c.19,0,.29.08.29.25a.35.35,0,0,1-.18.32.87.87,0,0,1-.49.12Z"/><path class="cls-1" d="M582.69,105.35a1.68,1.68,0,0,0-.17.87c0,.16.13.25.27.25a.63.63,0,0,0,.28-.08,3.08,3.08,0,0,0,.35-.29.71.71,0,0,1,.22-.15.18.18,0,0,1,.16,0,.17.17,0,0,1,.09.17.71.71,0,0,1-.09.3,2.13,2.13,0,0,1-.81.82,2.25,2.25,0,0,1-1.17.31,1.09,1.09,0,0,1-.74-.22.86.86,0,0,1-.26-.65,3,3,0,0,1,.22-1l1.27-3.4a1.75,1.75,0,0,0,.16-.87c0-.17-.13-.25-.27-.25a.56.56,0,0,0-.27.08,1.89,1.89,0,0,0-.36.29.85.85,0,0,1-.22.14.17.17,0,0,1-.17,0,.18.18,0,0,1-.09-.17,1,1,0,0,1,.1-.3,2.1,2.1,0,0,1,.8-.82,2.19,2.19,0,0,1,1.16-.31,1,1,0,0,1,.71.22.87.87,0,0,1,.27.65,2.68,2.68,0,0,1-.21,1.08Zm1-6.8a1.06,1.06,0,0,1-.78-.28.79.79,0,0,1-.22-.67A1.13,1.13,0,0,1,583,97a1.34,1.34,0,0,1,.52-.41,1.57,1.57,0,0,1,.73-.16,1,1,0,0,1,.78.28.78.78,0,0,1,.19.68A1,1,0,0,1,585,98a1.38,1.38,0,0,1-.51.41A1.66,1.66,0,0,1,583.73,98.55Z"/><path class="cls-1" d="M589.82,100a3.12,3.12,0,0,1,1.66.47,2.48,2.48,0,0,1,1,1.27,3.93,3.93,0,0,1,.09,2,5.07,5.07,0,0,1-.57,1.57,4.46,4.46,0,0,1-1,1.23,4.19,4.19,0,0,1-1.33.79,4,4,0,0,1-1.54.24,3,3,0,0,1-1.63-.48,2.39,2.39,0,0,1-1-1.27,3.9,3.9,0,0,1-.09-1.95,5,5,0,0,1,.56-1.58,4.4,4.4,0,0,1,1-1.23,4.26,4.26,0,0,1,1.31-.78A3.9,3.9,0,0,1,589.82,100Zm-1.67,6.86a1.41,1.41,0,0,0,.67-.08,2,2,0,0,0,.63-.37,3,3,0,0,0,.56-.65,4.72,4.72,0,0,0,.45-.9,6.91,6.91,0,0,0,.34-1.16,5.51,5.51,0,0,0,.13-1.64,1.83,1.83,0,0,0-.37-1,1,1,0,0,0-.77-.38,1.36,1.36,0,0,0-.66.08,1.88,1.88,0,0,0-.61.37,2.93,2.93,0,0,0-.55.64,5.51,5.51,0,0,0-.44.91,8.26,8.26,0,0,0-.33,1.15,5.29,5.29,0,0,0-.14,1.64,1.83,1.83,0,0,0,.35,1A1,1,0,0,0,588.15,106.9Z"/><path class="cls-1" d="M594.18,101.65a.17.17,0,0,1-.1-.17,1,1,0,0,1,.1-.3,2.11,2.11,0,0,1,.82-.83,2.33,2.33,0,0,1,1.18-.3,1.08,1.08,0,0,1,.68.19.67.67,0,0,1,.25.57,1.83,1.83,0,0,1-.09.52,6.49,6.49,0,0,1-.26.7l-.4,1c-.16.38-.34.85-.54,1.39l0-.34a8.51,8.51,0,0,1,1-1.91,6.2,6.2,0,0,1,1.18-1.25,4.51,4.51,0,0,1,1.19-.67,3.28,3.28,0,0,1,1.05-.2,1.27,1.27,0,0,1,.94.28,1,1,0,0,1,.25.8,4.56,4.56,0,0,1-.28,1.24l-1.06,3a1.91,1.91,0,0,0-.16.87c0,.17.13.25.28.25a.63.63,0,0,0,.27-.08,2.1,2.1,0,0,0,.35-.28A.85.85,0,0,1,601,106a.25.25,0,0,1,.17,0,.18.18,0,0,1,.09.17.75.75,0,0,1-.1.3,2.22,2.22,0,0,1-.81.83,2.32,2.32,0,0,1-1.17.31,1,1,0,0,1-.73-.23.84.84,0,0,1-.26-.64,2.9,2.9,0,0,1,.2-1l1.07-3.08a2.11,2.11,0,0,0,.2-1.1c-.06-.21-.23-.31-.52-.31a1.71,1.71,0,0,0-.74.21,3.57,3.57,0,0,0-.87.64,5.94,5.94,0,0,0-.84,1.06,7.47,7.47,0,0,0-.72,1.5c-.11.32-.2.59-.27.78a4.52,4.52,0,0,0-.13.47,1.11,1.11,0,0,0,0,.29.88.88,0,0,0,.06.35.91.91,0,0,1,.06.35.62.62,0,0,1-.36.54,2,2,0,0,1-1,.2c-.33,0-.53-.13-.59-.38A2.07,2.07,0,0,1,594,106l1.35-3.78a1.75,1.75,0,0,0,.16-.87c0-.17-.13-.25-.27-.25a.56.56,0,0,0-.27.08,1.89,1.89,0,0,0-.36.29.85.85,0,0,1-.22.14A.15.15,0,0,1,594.18,101.65Z"/><path class="cls-1" d="M608.23,105.35a1.68,1.68,0,0,0-.17.87c0,.16.13.25.27.25a.63.63,0,0,0,.28-.08,3.08,3.08,0,0,0,.35-.29.71.71,0,0,1,.22-.15.18.18,0,0,1,.16,0,.15.15,0,0,1,.09.17.71.71,0,0,1-.09.3,2.13,2.13,0,0,1-.81.82,2.25,2.25,0,0,1-1.17.31,1.09,1.09,0,0,1-.74-.22.9.9,0,0,1-.26-.65,3,3,0,0,1,.22-1l1.27-3.4a1.64,1.64,0,0,0,.16-.87c0-.17-.13-.25-.27-.25a.56.56,0,0,0-.27.08,1.89,1.89,0,0,0-.36.29.85.85,0,0,1-.22.14.17.17,0,0,1-.17,0,.18.18,0,0,1-.09-.17,1,1,0,0,1,.1-.3,2.1,2.1,0,0,1,.8-.82,2.22,2.22,0,0,1,1.16-.31,1,1,0,0,1,.71.22.87.87,0,0,1,.27.65,2.68,2.68,0,0,1-.21,1.08Zm1-6.8a1.06,1.06,0,0,1-.78-.28.79.79,0,0,1-.22-.67,1.13,1.13,0,0,1,.23-.58,1.34,1.34,0,0,1,.52-.41,1.57,1.57,0,0,1,.73-.16,1,1,0,0,1,.78.28.81.81,0,0,1,.2.68,1.1,1.1,0,0,1-.23.57,1.38,1.38,0,0,1-.51.41A1.66,1.66,0,0,1,609.27,98.55Z"/><path class="cls-1" d="M611.63,101.65a.18.18,0,0,1-.09-.17.62.62,0,0,1,.1-.3,2.15,2.15,0,0,1,.81-.83,2.35,2.35,0,0,1,1.18-.3,1.11,1.11,0,0,1,.69.19.7.7,0,0,1,.25.57,1.83,1.83,0,0,1-.09.52c-.06.19-.15.43-.26.7s-.25.61-.41,1-.34.85-.54,1.39l0-.34a8.52,8.52,0,0,1,1-1.91,6.47,6.47,0,0,1,1.17-1.25,4.67,4.67,0,0,1,1.19-.67,3.39,3.39,0,0,1,1.06-.2,1.29,1.29,0,0,1,.94.28,1,1,0,0,1,.24.8,4.56,4.56,0,0,1-.28,1.24l-1.05,3a1.78,1.78,0,0,0-.16.87c0,.17.13.25.27.25a.63.63,0,0,0,.27-.08,1.77,1.77,0,0,0,.36-.28.71.71,0,0,1,.22-.15.22.22,0,0,1,.16,0,.16.16,0,0,1,.09.17.62.62,0,0,1-.1.3,2.08,2.08,0,0,1-.81.83,2.32,2.32,0,0,1-1.17.31,1,1,0,0,1-.73-.23.84.84,0,0,1-.26-.64,3.14,3.14,0,0,1,.2-1l1.08-3.08a2.07,2.07,0,0,0,.19-1.1c0-.21-.23-.31-.52-.31a1.71,1.71,0,0,0-.74.21,3.36,3.36,0,0,0-.86.64,5.55,5.55,0,0,0-.85,1.06,7.46,7.46,0,0,0-.71,1.5c-.12.32-.21.59-.27.78a3.14,3.14,0,0,0-.14.47,1.11,1.11,0,0,0,0,.29.88.88,0,0,0,.06.35.91.91,0,0,1,.07.35.62.62,0,0,1-.36.54,2,2,0,0,1-1,.2.54.54,0,0,1-.6-.38,2.07,2.07,0,0,1,.18-1.15l1.35-3.78a1.75,1.75,0,0,0,.16-.87c0-.17-.13-.25-.27-.25a.63.63,0,0,0-.27.08,2.26,2.26,0,0,0-.36.29.85.85,0,0,1-.22.14A.15.15,0,0,1,611.63,101.65Z"/><path class="cls-1" d="M622.71,107a1.29,1.29,0,0,0,.85-.27.88.88,0,0,0,.32-.7,1,1,0,0,0-.1-.45,1.76,1.76,0,0,0-.37-.5,7.59,7.59,0,0,0-.8-.66,8,8,0,0,1-.9-.75,2.09,2.09,0,0,1-.47-.65,1.9,1.9,0,0,1-.13-.73,1.84,1.84,0,0,1,.36-1.11,2.49,2.49,0,0,1,1-.81,4,4,0,0,1,1.64-.3,3.56,3.56,0,0,1,1.25.2,1.82,1.82,0,0,1,.77.55,1.11,1.11,0,0,1,.26.73.69.69,0,0,1-.13.48.47.47,0,0,1-.39.18.57.57,0,0,1-.4-.15,1.41,1.41,0,0,1-.35-.52,1.93,1.93,0,0,0-.51-.68,1.13,1.13,0,0,0-.72-.23,1.37,1.37,0,0,0-.94.31,1,1,0,0,0-.34.78,1.18,1.18,0,0,0,.1.48,1.68,1.68,0,0,0,.37.52,7,7,0,0,0,.79.69,8,8,0,0,1,.94.81,2.09,2.09,0,0,1,.46.66,1.83,1.83,0,0,1,.12.68,1.63,1.63,0,0,1-.36,1,2.4,2.4,0,0,1-1,.73,4.34,4.34,0,0,1-1.57.26,3.65,3.65,0,0,1-1.36-.23,2,2,0,0,1-.84-.61A1.27,1.27,0,0,1,620,106a.72.72,0,0,1,.14-.46.45.45,0,0,1,.37-.18.73.73,0,0,1,.45.16,1.86,1.86,0,0,1,.36.53,1.92,1.92,0,0,0,.62.75A1.35,1.35,0,0,0,622.71,107Z"/><path class="cls-1" d="M629.13,105.35a1.8,1.8,0,0,0-.17.87c0,.16.14.25.27.25a.63.63,0,0,0,.28-.08,2.39,2.39,0,0,0,.35-.29.71.71,0,0,1,.22-.15.2.2,0,0,1,.17,0,.17.17,0,0,1,.09.17,1.21,1.21,0,0,1-.09.3,2.09,2.09,0,0,1-.82.82,2.22,2.22,0,0,1-1.16.31,1.06,1.06,0,0,1-.74-.22.83.83,0,0,1-.26-.65,2.77,2.77,0,0,1,.21-1l1.27-3.4a1.8,1.8,0,0,0,.17-.87.28.28,0,0,0-.28-.25.63.63,0,0,0-.27.08,2.26,2.26,0,0,0-.36.29.85.85,0,0,1-.22.14.15.15,0,0,1-.16,0,.18.18,0,0,1-.09-.17.62.62,0,0,1,.1-.3,2.07,2.07,0,0,1,.79-.82,2.22,2.22,0,0,1,1.16-.31,1,1,0,0,1,.71.22.88.88,0,0,1,.28.65,2.91,2.91,0,0,1-.22,1.08Zm1-6.8a1,1,0,0,1-.78-.28.79.79,0,0,1-.22-.67,1.12,1.12,0,0,1,.22-.58,1.5,1.5,0,0,1,.52-.41,1.6,1.6,0,0,1,.73-.16,1,1,0,0,1,.79.28.81.81,0,0,1,.19.68,1.09,1.09,0,0,1-.22.57,1.5,1.5,0,0,1-.52.41A1.65,1.65,0,0,1,630.18,98.55Z"/><path class="cls-1" d="M640.17,98,638,105.34a3.73,3.73,0,0,0-.15.68.58.58,0,0,0,.06.36.24.24,0,0,0,.21.1.47.47,0,0,0,.27-.08,1.77,1.77,0,0,0,.36-.28A1.06,1.06,0,0,1,639,106a.25.25,0,0,1,.17,0,.18.18,0,0,1,.09.17,1,1,0,0,1-.1.3,2,2,0,0,1-.48.6,2.29,2.29,0,0,1-.65.39,2.06,2.06,0,0,1-.73.14.94.94,0,0,1-.69-.23.9.9,0,0,1-.23-.67,3,3,0,0,1,.06-.55c0-.21.11-.49.2-.83s.22-.76.37-1.28l.24.12a8.07,8.07,0,0,1-1.16,1.91,4.91,4.91,0,0,1-1.33,1.14,2.73,2.73,0,0,1-1.35.39,1.63,1.63,0,0,1-1.36-.59,2.52,2.52,0,0,1-.35-1.83,5.27,5.27,0,0,1,.55-2,6.19,6.19,0,0,1,1.2-1.63,5.72,5.72,0,0,1,1.66-1.12,4.77,4.77,0,0,1,1.93-.4,2.61,2.61,0,0,1,.89.13,1.52,1.52,0,0,1,.58.39,1.16,1.16,0,0,1,.28.55l-1,.22a1,1,0,0,0-.34-.5,1.1,1.1,0,0,0-.64-.16,2.16,2.16,0,0,0-1,.26,3.74,3.74,0,0,0-.93.74,5.32,5.32,0,0,0-.79,1.06,5.5,5.5,0,0,0-.56,1.26,4.69,4.69,0,0,0-.23,1.31,1.59,1.59,0,0,0,.2,1,.75.75,0,0,0,.62.3,1.35,1.35,0,0,0,.76-.28,4.6,4.6,0,0,0,.85-.78,6.92,6.92,0,0,0,.79-1.16,6.84,6.84,0,0,0,.58-1.41l1.41-4.67a1.9,1.9,0,0,0,.13-.87c0-.17-.13-.25-.27-.25a.63.63,0,0,0-.28.08,2.27,2.27,0,0,0-.35.29,1.07,1.07,0,0,1-.22.14.17.17,0,0,1-.17,0,.18.18,0,0,1-.09-.17.75.75,0,0,1,.1-.3,2.35,2.35,0,0,1,.48-.6,2.08,2.08,0,0,1,.68-.39,2.14,2.14,0,0,1,.8-.14,1.07,1.07,0,0,1,.72.21.89.89,0,0,1,.26.65A3.1,3.1,0,0,1,640.17,98Z"/><path class="cls-1" d="M641.55,104.16l1.05-.4,1-.38,1.06-.41.92-.35-.18.26a2.63,2.63,0,0,0,.09-.44,4.8,4.8,0,0,0,0-.58,1.49,1.49,0,0,0-.23-.87.7.7,0,0,0-.6-.34,1.4,1.4,0,0,0-.77.28,3.27,3.27,0,0,0-.74.78,5,5,0,0,0-.58,1.15,5.34,5.34,0,0,0-.29,1.42,2.6,2.6,0,0,0,.36,1.74,1.48,1.48,0,0,0,1.25.57,2.53,2.53,0,0,0,.94-.18,2.34,2.34,0,0,0,.82-.54,2.24,2.24,0,0,0,.57-.86.8.8,0,0,1,.2-.23.36.36,0,0,1,.2-.06.22.22,0,0,1,.2.11.44.44,0,0,1,0,.35,2.59,2.59,0,0,1-.57,1.15,3.32,3.32,0,0,1-1.23.89,4.51,4.51,0,0,1-1.84.35,3.09,3.09,0,0,1-1.51-.34,2,2,0,0,1-.87-1,3.52,3.52,0,0,1-.21-1.51,5.17,5.17,0,0,1,.44-1.79,5.12,5.12,0,0,1,1-1.5,4.7,4.7,0,0,1,1.38-1,3.46,3.46,0,0,1,1.6-.38,2.05,2.05,0,0,1,1,.24,1.72,1.72,0,0,1,.65.66,2.23,2.23,0,0,1,.25.91.36.36,0,0,0,.07.19.17.17,0,0,0,.16.08.23.23,0,0,1,.17,0,.21.21,0,0,1,.05.15.3.3,0,0,1-.1.22,1.33,1.33,0,0,1-.41.22l-.84.29-1.11.41-1.2.43-1.1.4-1.1.39Z"/><path class="cls-1" d="M656,100a3.14,3.14,0,0,1,1.66.47,2.48,2.48,0,0,1,1,1.27,3.93,3.93,0,0,1,.09,2,5.07,5.07,0,0,1-.57,1.57,4.46,4.46,0,0,1-1,1.23,4.19,4.19,0,0,1-1.33.79,4,4,0,0,1-1.54.24,3,3,0,0,1-1.63-.48,2.39,2.39,0,0,1-1-1.27,3.79,3.79,0,0,1-.09-1.95,5,5,0,0,1,.56-1.58,4.4,4.4,0,0,1,1-1.23,4.26,4.26,0,0,1,1.31-.78A3.9,3.9,0,0,1,656,100Zm-1.67,6.86a1.37,1.37,0,0,0,.66-.08,2.09,2.09,0,0,0,.64-.37,3.33,3.33,0,0,0,.56-.65,4.72,4.72,0,0,0,.45-.9,6.91,6.91,0,0,0,.34-1.16,5.51,5.51,0,0,0,.13-1.64,1.83,1.83,0,0,0-.37-1,1,1,0,0,0-.77-.38,1.36,1.36,0,0,0-.66.08,1.88,1.88,0,0,0-.61.37,2.93,2.93,0,0,0-.55.64,5.51,5.51,0,0,0-.44.91,7.09,7.09,0,0,0-.33,1.15,5.29,5.29,0,0,0-.14,1.64,1.83,1.83,0,0,0,.35,1A1,1,0,0,0,654.32,106.9Z"/><path class="cls-1" d="M667.3,106a.18.18,0,0,1,.09.17.71.71,0,0,1-.09.3,2.18,2.18,0,0,1-.82.83,2.36,2.36,0,0,1-1.18.31,1.12,1.12,0,0,1-.68-.19.67.67,0,0,1-.25-.57,1.72,1.72,0,0,1,.09-.52c.06-.2.14-.43.25-.71l.41-1c.16-.39.35-.85.54-1.39l0,.33a8.7,8.7,0,0,1-1,1.91,6.2,6.2,0,0,1-1.18,1.25,4.11,4.11,0,0,1-1.19.67,3.16,3.16,0,0,1-1.06.21,1.29,1.29,0,0,1-.93-.28,1,1,0,0,1-.25-.81,4.58,4.58,0,0,1,.28-1.23l1-3a1.75,1.75,0,0,0,.16-.87c0-.17-.12-.25-.26-.25a.63.63,0,0,0-.28.08,1.61,1.61,0,0,0-.35.29.85.85,0,0,1-.22.14.17.17,0,0,1-.17,0,.18.18,0,0,1-.09-.17.71.71,0,0,1,.09-.3,2.15,2.15,0,0,1,.81-.83,2.32,2.32,0,0,1,1.17-.3,1.06,1.06,0,0,1,.74.22.86.86,0,0,1,.26.64,2.94,2.94,0,0,1-.2,1L662,105a2,2,0,0,0-.19,1.09.46.46,0,0,0,.51.32,1.71,1.71,0,0,0,.75-.21,3.85,3.85,0,0,0,.87-.64,5.71,5.71,0,0,0,.85-1.07,7.84,7.84,0,0,0,.71-1.48l.27-.79a3.2,3.2,0,0,0,.13-.47,1.17,1.17,0,0,0,0-.29.88.88,0,0,0-.06-.35.71.71,0,0,1-.07-.34.6.6,0,0,1,.36-.54,2,2,0,0,1,1-.2c.33,0,.53.12.6.37a2.11,2.11,0,0,1-.18,1.16l-1.35,3.77a1.91,1.91,0,0,0-.16.87c0,.17.13.25.27.25a.59.59,0,0,0,.27-.08,1.52,1.52,0,0,0,.35-.28.85.85,0,0,1,.22-.15A.25.25,0,0,1,667.3,106Z"/><path class="cls-1" d="M670.42,101.06l-.61-.12a.46.46,0,0,1-.2-.13.31.31,0,0,1-.06-.19.25.25,0,0,1,.12-.22.5.5,0,0,1,.33-.09h.68a.67.67,0,0,0,.33-.07,1.13,1.13,0,0,0,.27-.22l.83-1.15a.55.55,0,0,1,.22-.17.46.46,0,0,1,.23,0,.32.32,0,0,1,.23.07.31.31,0,0,1,.07.22,1.06,1.06,0,0,1,0,.23,1.65,1.65,0,0,1-.09.33L671,105.12a1.82,1.82,0,0,0-.12,1.06.56.56,0,0,0,.56.27,1.57,1.57,0,0,0,.68-.15,2.14,2.14,0,0,0,.66-.55.69.69,0,0,1,.17-.13.25.25,0,0,1,.14,0,.2.2,0,0,1,.15.06.21.21,0,0,1,0,.18,1.08,1.08,0,0,1-.24.55,2.67,2.67,0,0,1-.62.58,3.29,3.29,0,0,1-.88.44,3.24,3.24,0,0,1-1.09.18,1.45,1.45,0,0,1-.91-.25,1,1,0,0,1-.34-.74,3.63,3.63,0,0,1,.18-1.2l1.13-3.56a1.36,1.36,0,0,0,.09-.55A.25.25,0,0,0,670.42,101.06Zm1.34,0,.22-.69h2.13c.2,0,.29.08.29.25a.35.35,0,0,1-.18.32.85.85,0,0,1-.48.12Z"/><circle class="cls-2" cx="74.84" cy="74.84" r="74.84"/><path class="cls-1" d="M92.7,23.41c-2.63-1.48-10.87-5.63-10.87-5.63-.9.17-5.21.37-6.11.5a80.58,80.58,0,0,0-8.85,1.28C53.53,23.1,44.71,31.63,41.74,45c-2.67,12,1,22.72,9.82,31.51,4,4,7.12,8.44,8.1,14a97.35,97.35,0,0,1,.91,10.11c.38,5.69,2.5,8.12,8.3,8.56a119.19,119.19,0,0,0,12.54.05c5.54-.17,7.57-2.42,7.86-8a81.63,81.63,0,0,1,.92-9.51c1.2-7.1,5.41-12.47,10.22-17.57C114.68,59.05,110.81,33.62,92.7,23.41Z"/><path class="cls-1" d="M97.84,69.75C96,72,94,74.12,92.06,76.25c-6.15,6.66-7,15-7.47,23.46-.21,4-.3,4.21-4.32,4.23-3.8,0-7.6-.06-11.4,0-2.12,0-3.45-.95-3.31-2.95s-.56-3.9-.46-5.82c0-.13,0-.25,0-.39s.05-.33.08-.49a4.91,4.91,0,0,1,.21-.75c0-.08.07-.17.11-.24s0,0,0,0a5.1,5.1,0,0,1,1.19-1.63h0l-.24-.22-.69-.57a3.71,3.71,0,0,1-1-1.09,1.51,1.51,0,0,1-.1-.3c-1.55-7.27-5.81-12.9-10.85-18-10.9-11-10.36-29.6,1.17-40C62,25.22,70.06,22.43,79.47,24c2.85.45,2.84.54,4.41,4.6-.37-3.92,1.37-3.28,3.29-2.45C104,33.38,109.46,55.58,97.84,69.75Z"/><path class="cls-3" d="M135.11,49.36a59.26,59.26,0,0,0-19.67-24.1c-5.38-3.88-11-7.53-17.2-8.42v.73C120,25.38,133.68,41,138.48,64.19c4.55,22-2.22,41-18.06,56.83-1.72,1.71-3.59,3.27-5.4,4.9l.86.59c15.33-11.58,23.4-27.36,25.35-46.39C142.32,69.36,139.5,59.13,135.11,49.36Z"/><path class="cls-4" d="M74.89,119.94c-3.9,0-7.79,0-11.69,0-2,0-3.69-.6-3.71-2.93s1.49-3.38,3.7-3.39q11.84,0,23.67,0c2.22,0,3.77,1.13,3.74,3.38s-1.65,3-3.73,3C82.88,119.92,78.88,119.94,74.89,119.94Z"/><path class="cls-1" d="M39.12,24.72C22.76,37.5,13.19,54,12.78,74.88s8.52,37.56,24.78,50.94C28.8,124.36,14.51,101,12,84.94,8.23,60.14,22.13,34.59,39.12,24.72Z"/><path class="cls-4" d="M87.22,126.6H70.9c-2.09,0-4.19.1-6.28-.06-.71-.06-1.94-.73-2-1.16a3.41,3.41,0,0,1,1-2.51,4.8,4.8,0,0,1,2.81-.75c5.68-.06,11.36-.08,17,0C86.8,122.17,87.68,123.24,87.22,126.6Z"/><path class="cls-2" d="M66.76,91.72c-.73-.74-1.93-1.37-2.11-2.23-1.54-7.27-5.8-12.9-10.84-18-10.9-11-10.36-29.6,1.17-40C62,25.22,70.06,22.43,79.47,24a34.5,34.5,0,0,1,7.7,2.15C104,33.38,109.46,55.59,97.84,69.76,96,72,94,74.12,92.06,76.25c-6.15,6.66-7,15-7.47,23.46-.21,4-.3,4.21-4.32,4.23-3.8,0-7.6-.06-11.4,0-2.12,0-3.45-1-3.31-2.94.22-3.13-1.81-6.58,1.17-9.37q12.17-16.5,24.37-33c2.39-3.22,4.76-6.45,7.14-9.68l-.52-.74L74.66,51.12c1.25-8.33,2.42-16.23,3.6-24.13l-.51-.24-23,37,.48.64,21.22-4.82a19.63,19.63,0,0,1-.42,2.9C73.47,70,70.8,77.52,68.29,85.11,67.58,87.24,67.26,89.51,66.76,91.72Z"/><path class="cls-3" d="M66.76,91.72c.5-2.21.82-4.48,1.53-6.61C70.8,77.52,73.47,70,76,62.42a19.63,19.63,0,0,0,.42-2.9L55.24,64.34l-.48-.64,23-36.95.51.24c-1.18,7.9-2.35,15.8-3.6,24.13l23.06-2.85.52.74c-2.38,3.23-4.75,6.46-7.14,9.68q-12.19,16.47-24.37,33Z"/><polygon class="cls-3" points="93.94 28.09 92.86 26.97 91.79 25.86 90.72 24.74 89.64 23.62 88.57 22.5 87.5 21.39 85.94 24.66 83.92 30.13 83.49 24.26 82.61 20.59 81.23 21.31 79.86 22.03 78.49 22.75 77.12 23.48 75.75 24.2 71.84 27.46 75.59 23.68 76.81 22.44 78.03 21.2 79.24 19.96 80.46 18.73 81.12 17.25 77.99 15.92 74.31 14.35 78.44 13.13 82.58 11.9 81.82 10.34 81.06 8.78 80.3 7.22 79.53 5.66 78.77 4.1 78.01 2.54 79.12 3.44 80.22 4.34 81.33 5.24 82.44 6.13 83.55 7.03 84.66 7.93 86.59 5.18 88.52 2.43 89.03 5.58 89.55 8.72 90.89 8.22 92.22 7.72 93.56 7.22 94.89 6.72 96.23 6.22 97.56 5.72 96.67 7.01 95.77 8.3 94.88 9.59 93.98 10.88 93.09 12.17 92.19 13.46 97.11 16.18 105.01 18.87 96.66 18.98 91.28 19.05 91.72 20.56 92.17 22.06 92.61 23.57 93.05 25.08 93.49 26.58 93.94 28.09"/></g></g></svg>